<svg width="24" height="24" viewBox="0 0 24 24" fill="none" xmlns="http://www.w3.org/2000/svg">
<path d="M17 13C17.5523 13 18 12.5523 18 12C18 11.4477 17.5523 11 17 11L17 13ZM3 11C2.44771 11 2 11.4477 2 12C2 12.5523 2.44771 13 3 13L3 11ZM17 11L3 11L3 13L17 13L17 11Z" fill="white"/>
<path d="M21.7152 12.2034L16.265 16.0964C15.7355 16.4746 15 16.0961 15 15.4454L15 8.55455C15 7.90385 15.7355 7.52535 16.265 7.90356L21.7152 11.7966C21.8548 11.8963 21.8548 12.1037 21.7152 12.2034Z" fill="white"/>
</svg>
