<svg width="40" height="40" viewBox="0 0 40 40" fill="none" xmlns="http://www.w3.org/2000/svg">
<ellipse cx="19" cy="27.9999" rx="16.5" ry="5" fill="#F2F4F6"/>
<path d="M14.1851 29.3151V13.1661L7.43188 9.05544V25.2044L14.1851 29.3151Z" fill="#8C8F93"/>
<path d="M14.1851 13.1661V29.3151L30.0404 26.9661V10.8171L22.1128 11.9916L14.1851 13.1661Z" fill="#B1B5BA"/>
<path d="M14.1851 13.1661L22.1128 11.9916L30.0404 10.8171L21.5255 7.00012L7.43188 9.05544L14.1851 13.1661Z" fill="#C8CCD2"/>
<path d="M20.6447 11.9915L13.8915 8.17452L17.7085 7.58728L24.7553 11.4043V22.8554L22.7 21.3873L20.6447 23.149V11.9915Z" fill="#E42313"/>
<path d="M9.48727 19.6256L5.96386 20.5065L6.25748 23.4427L9.48727 22.2682V19.6256Z" fill="#5C5E61"/>
<path fill-rule="evenodd" clip-rule="evenodd" d="M5.96386 17.5703L9.48727 19.6256L5.96386 20.5065L2.73407 18.7448L5.96386 17.5703Z" fill="#C8CCD2"/>
<path d="M5.96386 20.5065L2.73407 18.7448L4.49577 21.0937L6.25748 23.4427L5.96386 20.5065Z" fill="#EEAFAF"/>
<path d="M34.801 13.1514L32.9324 16.2656L35.2162 18.1342L36.6695 15.0199L34.801 13.1514Z" fill="#8C8F93"/>
<path fill-rule="evenodd" clip-rule="evenodd" d="M30.8562 14.1895L34.801 13.1514L32.9324 16.2656L29.4029 17.3037L30.8562 14.1895Z" fill="#C8CCD2"/>
<path d="M32.9324 16.2656L29.4029 17.3037L32.3095 17.719L35.2162 18.1342L32.9324 16.2656Z" fill="#EEAFAF"/>
</svg>
