<svg width="24" height="24" viewBox="0 0 24 24" fill="none" xmlns="http://www.w3.org/2000/svg">
<path d="M20.4 4.5H3.6C3.03995 4.5 2.75992 4.5 2.54601 4.60899C2.35785 4.70487 2.20487 4.85785 2.10899 5.04601C2 5.25992 2 5.53995 2 6.1V6.6317C2 6.94896 2 7.10759 2.04417 7.25123C2.08327 7.37839 2.14735 7.49646 2.23265 7.59854C2.32901 7.71386 2.46201 7.80031 2.72802 7.97321L2.72802 7.97321L10.256 12.8664C10.8873 13.2767 11.2029 13.4819 11.543 13.5617C11.8436 13.6323 12.1564 13.6323 12.457 13.5617C12.7971 13.4819 13.1127 13.2767 13.744 12.8664L13.744 12.8664L21.272 7.97321C21.538 7.80031 21.671 7.71386 21.7674 7.59854C21.8527 7.49646 21.9167 7.37839 21.9558 7.25123C22 7.10759 22 6.94896 22 6.6317V6.1C22 5.53995 22 5.25992 21.891 5.04601C21.7951 4.85785 21.6422 4.70487 21.454 4.60899C21.2401 4.5 20.9601 4.5 20.4 4.5Z" stroke="#ED2B24" stroke-width="1.8"/>
<path d="M22 7V15.8C22 16.9201 22 17.4802 21.782 17.908C21.5903 18.2843 21.2843 18.5903 20.908 18.782C20.4802 19 19.9201 19 18.8 19H5.2C4.0799 19 3.51984 19 3.09202 18.782C2.71569 18.5903 2.40973 18.2843 2.21799 17.908C2 17.4802 2 16.9201 2 15.8V7" stroke="#ED2B24" stroke-width="1.8" stroke-linecap="round" stroke-linejoin="round"/>
</svg>
