<svg width="180" height="180" viewBox="0 0 180 180" fill="none" xmlns="http://www.w3.org/2000/svg">
<g clip-path="url(#clip0_3319_25042)">
<rect width="180" height="180" fill="white"/>
<path d="M79.6493 154.663C76.8508 156.402 72.9861 159.679 70.4874 161.351C67.9888 163.024 56.8653 164.898 48.1658 163.525C37.2714 161.807 31.217 158.325 22.6791 151.319C8.3979 139.6 1.47795 127.693 1.02368 109.183C0.546488 89.7389 7.26453 76.1577 22.6791 64.3718C38.4845 52.287 54.0099 58.0821 66.9893 44.1399C73.2981 37.363 72.6091 30.0825 79.6493 24.0751C89.5065 15.6641 98.6103 15.4098 111.521 15.0491L111.633 15.046C130.182 14.5276 142.515 18.314 156.609 30.4289C168.363 40.5321 172.971 49.4489 177.265 64.3718C181.778 80.0553 182.665 90.7842 180 106C177.335 121.216 171.614 139.09 156.609 151.319C147.08 159.086 141.784 161.853 127.624 163.525C113.465 165.197 101.138 152.49 94.9747 151.319C88.8112 150.149 83.1475 152.49 79.6493 154.663Z" fill="#FDF7F7"/>
<circle cx="22.7543" cy="91.7363" r="2.03802" transform="rotate(-17.9761 22.7543 91.7363)" fill="#F4CACA"/>
<circle cx="77.1709" cy="32.7849" r="2.03802" transform="rotate(-17.9761 77.1709 32.7849)" fill="#F4CACA"/>
<circle cx="163.33" cy="86.0679" r="1.63042" transform="rotate(-17.9761 163.33 86.0679)" stroke="#E42313" stroke-width="0.81521"/>
<circle cx="134.989" cy="23.1487" r="1.63042" transform="rotate(-17.9761 134.989 23.1487)" stroke="#E42313" stroke-width="0.81521"/>
<circle cx="68.6676" cy="36.7529" r="1.63042" transform="rotate(-17.9761 68.6676 36.7529)" stroke="#E42313" stroke-width="0.81521"/>
<circle cx="11.9841" cy="120.078" r="1.63042" transform="rotate(-17.9761 11.9841 120.078)" stroke="#E42313" stroke-width="0.81521"/>
<path d="M144.891 52.134L148.742 54.0984" stroke="#FF6121" stroke-width="1.22281" stroke-linecap="round"/>
<path d="M147.799 51.1904L145.835 55.0417" stroke="#FF6121" stroke-width="1.22281" stroke-linecap="round"/>
<path d="M33.7913 49.2998L37.6425 51.2641" stroke="#FF6121" stroke-width="1.22281" stroke-linecap="round"/>
<path d="M36.699 48.3564L34.7346 52.2077" stroke="#FF6121" stroke-width="1.22281" stroke-linecap="round"/>
</g>
<path d="M135.291 135.314H32.7625L11.1973 64.8156C10.991 64.1422 10.9457 63.4299 11.065 62.7358C11.1843 62.0418 11.465 61.3854 11.8843 60.8197C12.3036 60.2539 12.8499 59.7945 13.4793 59.4784C14.1086 59.1624 14.8033 58.9985 15.5075 59H108.617C109.581 58.9998 110.519 59.3091 111.294 59.8824C112.069 60.4556 112.639 61.2625 112.921 62.1842L135.291 135.314Z" fill="#E42313"/>
<path d="M118.5 126.922H44.9445C43.9719 126.922 43.0249 126.61 42.2429 126.032C41.4609 125.453 40.885 124.639 40.6 123.71L24.2692 70.3203C24.1653 69.9815 24.1424 69.6231 24.2022 69.2738C24.2621 68.9246 24.4031 68.5942 24.6139 68.3094C24.8248 68.0246 25.0995 67.7933 25.416 67.634C25.7326 67.4747 26.0821 67.3919 26.4364 67.3923H99.9924C100.965 67.3924 101.912 67.7045 102.694 68.2827C103.476 68.861 104.052 69.6749 104.337 70.6048L120.668 123.994C120.772 124.333 120.794 124.691 120.735 125.04C120.675 125.39 120.534 125.72 120.323 126.005C120.112 126.29 119.837 126.521 119.521 126.68C119.204 126.84 118.855 126.922 118.5 126.922Z" fill="white"/>
<circle cx="73.1467" cy="98.1467" r="14.1467" fill="#E42313"/>
<path d="M66.2019 96.7464L71.2556 101.666C71.4509 101.856 71.7605 101.861 71.9616 101.677L80.6058 93.7742" stroke="white" stroke-width="2.57213" stroke-linecap="round"/>
<path d="M32.7622 135.314H170.481C171.41 135.314 172.301 135.684 172.958 136.34C173.615 136.997 173.984 137.888 173.984 138.818V143.497C173.984 144.426 173.615 145.317 172.958 145.974C172.301 146.631 171.41 147 170.481 147H36.2653C35.8052 147 35.3497 146.909 34.9247 146.733C34.4997 146.557 34.1135 146.299 33.7882 145.974C33.4629 145.649 33.2049 145.263 33.0289 144.838C32.8528 144.413 32.7622 143.957 32.7622 143.497V135.314Z" fill="#C40D0E"/>
<defs>
<clipPath id="clip0_3319_25042">
<rect width="180" height="180" fill="white"/>
</clipPath>
</defs>
</svg>
