<svg width="24" height="24" viewBox="0 0 24 24" fill="none" xmlns="http://www.w3.org/2000/svg">
<path fill-rule="evenodd" clip-rule="evenodd" d="M5.30859 16.3818C5.64697 16.8987 6.04574 17.3772 6.49863 17.8065C7.62082 18.8701 9.02719 19.5858 10.5476 19.8668C12.068 20.1479 13.6373 19.9824 15.0656 19.3903C16.4939 18.7982 17.72 17.8049 18.5956 16.5305C19.4711 15.2562 19.9587 13.7554 19.9992 12.2098C20.0397 10.6641 19.6315 9.13989 18.8238 7.82142C18.0162 6.50295 16.8438 5.44677 15.4485 4.78065C14.5042 4.32984 13.4852 4.07076 12.4499 4.0127L13.0051 6.08459C13.5502 6.17703 14.0827 6.34484 14.5869 6.58552C15.6334 7.08511 16.5127 7.87725 17.1184 8.8661C17.7241 9.85496 18.0303 10.9981 17.9999 12.1574C17.9695 13.3166 17.6038 14.4422 16.9472 15.3979C16.2905 16.3537 15.3709 17.0987 14.2997 17.5428C13.2284 17.9868 12.0515 18.111 10.9112 17.9002C9.77088 17.6894 8.7161 17.1526 7.87446 16.3549C7.69872 16.1883 7.53385 16.0119 7.38049 15.8267L5.30859 16.3818Z" fill="#A7A5F5"/>
<path d="M5.91239 4.06647C6.68924 3.47037 7.54796 2.99272 8.46042 2.64739C8.87978 2.48868 9.08946 2.40932 9.28694 2.51053C9.48442 2.61174 9.54649 2.84338 9.67063 3.30667L11.7412 11.0341C11.8632 11.4894 11.9242 11.7171 11.8206 11.8964C11.7171 12.0758 11.4894 12.1368 11.0341 12.2588L3.30667 14.3294C2.84338 14.4535 2.61174 14.5156 2.42535 14.3952C2.23896 14.2747 2.20284 14.0535 2.13061 13.6109C1.97344 12.6481 1.95774 11.6656 2.08555 10.6947C2.25696 9.39275 2.68314 8.13728 3.33975 7C3.99636 5.86272 4.87054 4.8659 5.91239 4.06647Z" stroke="#A7A5F5" stroke-width="2"/>
</svg>
