<svg width="150" height="26" viewBox="0 0 150 26" fill="none" xmlns="http://www.w3.org/2000/svg">
<path d="M30.4414 5.35547H36.5673C39.2853 5.35547 41.389 6.05725 42.8784 7.46082C44.3678 8.86439 45.1181 10.8329 45.1293 13.3664C45.1293 15.9025 44.379 17.8751 42.8784 19.2841C41.3778 20.6931 39.2741 21.3989 36.5673 21.4016H30.4414V5.35547ZM36.378 19.0118C40.1955 19.0118 42.1042 17.13 42.1042 13.3664C42.1042 9.60275 40.1955 7.72907 36.378 7.74532H33.4791V19.0118H36.378Z" fill="url(#paint0_linear_724_4819)"/>
<path d="M47.7773 5.10352H51.0296V7.90388H47.7773V5.10352ZM47.9456 21.4017V10.2734H50.8908V21.4017H47.9456Z" fill="url(#paint1_linear_724_4819)"/>
<path d="M65.1454 10.2733V20.3773C65.1454 22.1223 64.6462 23.4419 63.6476 24.336C62.6491 25.2302 61.1765 25.6786 59.2299 25.6813C58.2502 25.6848 57.2747 25.5576 56.331 25.3034C55.4674 25.0816 54.6473 24.7247 53.9033 24.2466L54.7448 22.2429C56.0732 23.0482 57.6069 23.4815 59.1752 23.4947C61.2143 23.4947 62.2353 22.5233 62.2381 20.5805V19.1255C61.8985 19.7434 61.3735 20.2478 60.7319 20.5724C60.0334 20.9227 59.2553 21.0988 58.4683 21.0845C57.5353 21.1075 56.6151 20.8706 55.8176 20.4022C55.0201 19.9337 54.3789 19.2535 53.9707 18.4427C53.5142 17.5444 53.2877 16.5534 53.3101 15.5529C53.2888 14.55 53.5107 13.5562 53.958 12.6509C54.3579 11.8412 54.9922 11.1607 55.784 10.6919C56.5939 10.2222 57.5239 9.98143 58.4683 9.99689C59.2553 9.98265 60.0334 10.1587 60.7319 10.509C61.3735 10.8336 61.8985 11.338 62.2381 11.9559V10.2733H65.1454ZM61.4345 17.9956C61.9951 17.3022 62.2748 16.4352 62.2213 15.557C62.2747 14.6699 61.9921 13.7944 61.4261 13.094C61.1385 12.8132 60.7962 12.5902 60.4188 12.4381C60.0415 12.286 59.6367 12.2076 59.2278 12.2076C58.8189 12.2076 58.4141 12.286 58.0367 12.4381C57.6594 12.5902 57.317 12.8132 57.0294 13.094C56.4595 13.791 56.1749 14.6662 56.23 15.5529C56.1766 16.4331 56.4612 17.3015 57.0294 17.9915C57.3161 18.2738 57.6582 18.498 58.0357 18.6511C58.4131 18.8042 58.8184 18.883 59.2278 18.883C59.6371 18.883 60.0424 18.8042 60.4199 18.6511C60.7973 18.498 61.1394 18.2738 61.4261 17.9915L61.4345 17.9956Z" fill="url(#paint2_linear_724_4819)"/>
<path d="M68.0195 5.10352H71.2718V7.90388H68.0195V5.10352ZM68.1836 21.4017V10.2734H71.1288V21.4017H68.1836Z" fill="url(#paint3_linear_724_4819)"/>
<path d="M81.1434 19.3781L81.0003 21.4916C80.57 21.5369 80.1374 21.56 79.7045 21.5607C78.0888 21.5607 76.894 21.203 76.124 20.4795C75.3541 19.7561 74.9712 18.6872 74.9712 17.2606V12.4117H72.7539V10.2739H74.9712V6.94922H77.9163V10.2739H80.9541V12.4117H77.9163V17.2158C77.9163 18.698 78.6302 19.4404 80.0579 19.4431C80.4208 19.4428 80.7833 19.421 81.1434 19.3781Z" fill="url(#paint4_linear_724_4819)"/>
<path d="M91.4147 11.134C92.2001 11.8954 92.5927 13.0646 92.5927 14.6415V21.4006H89.7906V19.6936C89.5337 20.2748 89.0915 20.7617 88.5284 21.0836C87.9238 21.4241 87.2338 21.5971 86.5341 21.5835C85.8056 21.5939 85.0848 21.4379 84.4304 21.1283C83.8285 20.8466 83.3157 20.4144 82.9452 19.8765C82.5854 19.3498 82.3964 18.7314 82.4025 18.1003C82.3644 17.4004 82.5951 16.7115 83.0504 16.1657C83.6251 15.6223 84.3601 15.2645 85.1541 15.1415C86.4825 14.8999 87.8334 14.7937 89.1848 14.8244H89.7738V14.3001C89.8275 13.7157 89.6467 13.1337 89.2689 12.6744C89.037 12.4868 88.7688 12.3456 88.4799 12.259C88.1909 12.1725 87.8871 12.1424 87.586 12.1704C86.9339 12.1781 86.2868 12.2823 85.6674 12.4793C84.9796 12.6907 84.319 12.977 83.6984 13.3328L82.8863 11.3778C84.3818 10.5256 86.0774 10.0556 87.8132 10.0122C89.4288 9.99596 90.6321 10.378 91.4147 11.134ZM89.0501 18.771C89.5544 18.2344 89.8203 17.5279 89.7906 16.8038V16.3242H89.3699C88.5512 16.3091 87.7325 16.3553 86.9212 16.4624C86.4616 16.499 86.023 16.6643 85.659 16.9379C85.5308 17.0589 85.4308 17.2048 85.3655 17.3659C85.3002 17.5271 85.2712 17.6999 85.2803 17.8727C85.2775 18.0985 85.3253 18.3222 85.4205 18.5285C85.5156 18.7348 85.6558 18.9187 85.8315 19.0677C86.1907 19.3832 86.6632 19.5509 87.1484 19.5351C87.5032 19.544 87.8559 19.4806 88.1836 19.3489C88.5113 19.2172 88.8066 19.0203 89.0501 18.771Z" fill="url(#paint5_linear_724_4819)"/>
<path d="M95.5859 21.4016V5.35547H98.5311V21.4016H95.5859Z" fill="url(#paint6_linear_724_4819)"/>
<path d="M101.816 5.35547H109.07C110.845 5.35547 112.228 5.78358 113.218 6.63981C114.209 7.49604 114.704 8.6991 114.704 10.249C114.704 11.7989 114.209 13.0046 113.218 13.8663C112.228 14.7279 110.845 15.1615 109.07 15.1669H104.863V21.4016H101.816V5.35547ZM108.695 12.9112C110.782 12.9112 111.827 12.0319 111.83 10.2734C111.861 9.90646 111.807 9.53749 111.672 9.1931C111.538 8.8487 111.326 8.53746 111.052 8.28182C110.533 7.84558 109.747 7.62881 108.695 7.63152H104.854V12.9152L108.695 12.9112Z" fill="url(#paint7_linear_724_4819)"/>
<path d="M125.381 11.1339C126.166 11.8953 126.559 13.0645 126.559 14.6415V21.4006H123.74V19.6935C123.483 20.2748 123.041 20.7617 122.478 21.0835C121.875 21.4243 121.186 21.5973 120.488 21.5835C119.759 21.592 119.039 21.4361 118.384 21.1282C117.783 20.8475 117.271 20.415 116.903 19.8764C116.543 19.3498 116.354 18.7313 116.36 18.1003C116.318 17.3998 116.549 16.7095 117.008 16.1656C117.582 15.6207 118.317 15.2626 119.112 15.1414C120.44 14.8997 121.791 14.7934 123.143 14.8244H123.727V14.3001C123.781 13.7157 123.6 13.1337 123.223 12.6743C122.991 12.4863 122.723 12.3449 122.434 12.2583C122.145 12.1718 121.841 12.1419 121.54 12.1703C120.886 12.178 120.238 12.2822 119.617 12.4792C118.931 12.6914 118.272 12.9777 117.652 13.3328L116.811 11.3737C118.304 10.5208 119.999 10.0507 121.733 10.0081C123.382 9.9959 124.582 10.378 125.381 11.1339ZM123.012 18.7709C123.518 18.2355 123.785 17.5282 123.753 16.8037V16.3241H123.332C122.512 16.3091 121.692 16.3553 120.879 16.4623C120.419 16.499 119.981 16.6642 119.617 16.9379C119.489 17.0592 119.39 17.2052 119.326 17.3664C119.261 17.5275 119.233 17.7001 119.242 17.8727C119.235 18.096 119.277 18.3183 119.367 18.5245C119.456 18.7306 119.59 18.9158 119.76 19.0676C120.121 19.3834 120.595 19.551 121.081 19.535C121.439 19.5463 121.795 19.4839 122.125 19.3522C122.456 19.2205 122.754 19.0223 123 18.7709H123.012Z" fill="url(#paint8_linear_724_4819)"/>
<path d="M130.965 21.2192C130.175 21.0094 129.435 20.6547 128.785 20.1746L129.627 18.1912C130.846 19.0549 132.322 19.5115 133.834 19.4918C134.369 19.5226 134.903 19.4116 135.378 19.1707C135.542 19.0788 135.677 18.9456 135.769 18.7852C135.861 18.6249 135.906 18.4435 135.9 18.2603C135.908 18.1126 135.878 17.9653 135.815 17.8308C135.751 17.6964 135.655 17.5788 135.534 17.4881C135.132 17.2413 134.685 17.0715 134.217 16.9881L132.332 16.5817C131.445 16.4331 130.621 16.0376 129.963 15.4437C129.701 15.1804 129.496 14.8696 129.36 14.5291C129.223 14.1886 129.158 13.8253 129.168 13.4603C129.158 12.8087 129.369 12.172 129.77 11.6475C130.205 11.1003 130.787 10.6786 131.453 10.4282C132.243 10.1254 133.089 9.97753 133.939 9.99333C134.744 9.99145 135.544 10.115 136.308 10.3591C137.037 10.5838 137.72 10.929 138.327 11.3793L137.486 13.3139C136.461 12.5383 135.207 12.0997 133.906 12.0621C133.379 12.0334 132.854 12.1519 132.395 12.4035C132.225 12.5017 132.085 12.642 131.989 12.8099C131.894 12.9778 131.847 13.1672 131.852 13.3586C131.849 13.5008 131.878 13.6421 131.937 13.7721C131.997 13.9022 132.086 14.0178 132.197 14.1106C132.517 14.348 132.893 14.5045 133.291 14.5658L135.248 14.9966C136.185 15.14 137.061 15.539 137.772 16.1468C138.042 16.4206 138.252 16.7443 138.389 17.0983C138.527 17.4524 138.589 17.8297 138.572 18.2075C138.582 18.6859 138.469 19.1594 138.243 19.5851C138.017 20.0109 137.684 20.3755 137.276 20.6461C136.415 21.253 135.245 21.5565 133.767 21.5565C132.821 21.574 131.877 21.4604 130.965 21.2192Z" fill="url(#paint9_linear_724_4819)"/>
<path d="M142.39 21.2178C141.601 21.0081 140.861 20.6534 140.211 20.1733L141.052 18.1899C142.271 19.0536 143.748 19.5102 145.26 19.4905C145.795 19.5213 146.329 19.4102 146.804 19.1694C146.97 19.0785 147.107 18.9458 147.2 18.7854C147.293 18.6249 147.34 18.4429 147.334 18.259C147.342 18.1113 147.313 17.964 147.249 17.8295C147.185 17.6951 147.089 17.5775 146.968 17.4867C146.569 17.2409 146.125 17.0712 145.659 16.9868L143.775 16.5804C142.881 16.4348 142.052 16.0391 141.389 15.4423C141.128 15.1759 140.925 14.8617 140.791 14.5183C140.657 14.175 140.596 13.8093 140.611 13.4427C140.601 12.7911 140.812 12.1544 141.212 11.63C141.647 11.0818 142.229 10.66 142.895 10.4106C143.686 10.1078 144.531 9.95995 145.382 9.97576C146.187 9.97387 146.986 10.0974 147.751 10.3416C148.475 10.5729 149.153 10.9236 149.753 11.378L148.912 13.3126C147.887 12.537 146.633 12.0984 145.331 12.0608C144.804 12.0321 144.28 12.1506 143.821 12.4022C143.651 12.5004 143.511 12.6407 143.415 12.8086C143.32 12.9765 143.273 13.1659 143.278 13.3573C143.274 13.4995 143.303 13.6408 143.363 13.7708C143.423 13.9009 143.511 14.0165 143.623 14.1092C143.943 14.3467 144.319 14.5031 144.717 14.5644L146.673 14.9953C147.611 15.1387 148.487 15.5377 149.198 16.1455C149.468 16.4193 149.678 16.7429 149.815 17.097C149.953 17.4511 150.015 17.8284 149.997 18.2061C150.008 18.6846 149.895 19.1581 149.669 19.5838C149.443 20.0096 149.11 20.3742 148.701 20.6448C147.84 21.2517 146.671 21.5552 145.192 21.5552C144.247 21.5727 143.303 21.459 142.39 21.2178Z" fill="url(#paint10_linear_724_4819)"/>
<path d="M19.812 12.8784C21.4487 11.3705 22.5384 9.81791 19.6101 8.36693L1.12712 0.047135C1.00973 0.00221364 0.881875 -0.010928 0.757326 0.00912478C0.632777 0.0291775 0.516248 0.0816652 0.420283 0.160938L0.34455 0.217839C0.167841 0.368221 0.0836933 0.510475 0.0626565 0.965685V6.94846C0.059875 7.12929 0.0941941 7.30887 0.163633 7.47683C0.360904 7.84802 0.691482 8.13702 1.09346 8.2897L1.1734 8.32628L16.261 14.6545C16.261 14.6545 17.3802 15.1138 19.812 12.8784Z" fill="url(#paint11_linear_724_4819)"/>
<path d="M14.7553 15.109L6.90856 18.4458C6.88539 18.4561 6.85992 18.4605 6.83451 18.4587C6.80909 18.457 6.78455 18.449 6.76316 18.4357C6.74176 18.4223 6.72421 18.4039 6.71212 18.3822C6.70002 18.3606 6.69379 18.3363 6.69398 18.3117V14.1823C6.70599 13.8049 6.59785 13.433 6.38418 13.1169C6.17051 12.8007 5.86158 12.5555 5.49909 12.4143H5.46964C5.19616 12.2964 1.96911 10.8942 1.08977 10.7072C0.877752 10.6448 0.648802 10.6657 0.452646 10.7654C0.256491 10.8651 0.108973 11.0355 0.0421345 11.2397C0.0132331 11.3108 -0.00105699 11.3868 6.0864e-05 11.4632C6.0864e-05 12.2192 6.0864e-05 17.4297 0.0295124 21.2177C0.0547566 24.8391 4.47249 26.5014 6.37001 25.8674C6.4752 25.8349 16.4382 22.1119 16.4382 22.1119C21.9078 19.7952 21.7648 17.7345 21.9078 17.3647V11.3779C21.9098 10.9256 21.7801 10.4819 21.5334 10.0976C21.4324 9.94313 21.3272 9.74397 21.2136 9.59766C20.7634 12.1176 18.4494 13.7555 14.7553 15.109Z" fill="#D5271D"/>
<defs>
<linearGradient id="paint0_linear_724_4819" x1="30.4414" y1="15.3945" x2="150.011" y2="15.3945" gradientUnits="userSpaceOnUse">
<stop stop-color="#F96F38"/>
<stop offset="1" stop-color="#D3261E"/>
</linearGradient>
<linearGradient id="paint1_linear_724_4819" x1="30.4388" y1="15.3945" x2="150.008" y2="15.3945" gradientUnits="userSpaceOnUse">
<stop stop-color="#F96F38"/>
<stop offset="1" stop-color="#D3261E"/>
</linearGradient>
<linearGradient id="paint2_linear_724_4819" x1="30.4389" y1="15.3944" x2="150.008" y2="15.3944" gradientUnits="userSpaceOnUse">
<stop stop-color="#F96F38"/>
<stop offset="1" stop-color="#D3261E"/>
</linearGradient>
<linearGradient id="paint3_linear_724_4819" x1="30.4394" y1="15.3945" x2="150.008" y2="15.3945" gradientUnits="userSpaceOnUse">
<stop stop-color="#F96F38"/>
<stop offset="1" stop-color="#D3261E"/>
</linearGradient>
<linearGradient id="paint4_linear_724_4819" x1="30.4404" y1="15.395" x2="150.01" y2="15.395" gradientUnits="userSpaceOnUse">
<stop stop-color="#F96F38"/>
<stop offset="1" stop-color="#D3261E"/>
</linearGradient>
<linearGradient id="paint5_linear_724_4819" x1="30.4416" y1="15.3935" x2="150.011" y2="15.3935" gradientUnits="userSpaceOnUse">
<stop stop-color="#F96F38"/>
<stop offset="1" stop-color="#D3261E"/>
</linearGradient>
<linearGradient id="paint6_linear_724_4819" x1="30.4385" y1="15.3945" x2="150.009" y2="15.3945" gradientUnits="userSpaceOnUse">
<stop stop-color="#F96F38"/>
<stop offset="1" stop-color="#D3261E"/>
</linearGradient>
<linearGradient id="paint7_linear_724_4819" x1="30.4384" y1="15.3945" x2="150.008" y2="15.3945" gradientUnits="userSpaceOnUse">
<stop stop-color="#F96F38"/>
<stop offset="1" stop-color="#D3261E"/>
</linearGradient>
<linearGradient id="paint8_linear_724_4819" x1="30.4418" y1="15.3934" x2="150.011" y2="15.3934" gradientUnits="userSpaceOnUse">
<stop stop-color="#F96F38"/>
<stop offset="1" stop-color="#D3261E"/>
</linearGradient>
<linearGradient id="paint9_linear_724_4819" x1="30.442" y1="15.3949" x2="150.011" y2="15.3949" gradientUnits="userSpaceOnUse">
<stop stop-color="#F96F38"/>
<stop offset="1" stop-color="#D3261E"/>
</linearGradient>
<linearGradient id="paint10_linear_724_4819" x1="30.4404" y1="15.3936" x2="150.01" y2="15.3936" gradientUnits="userSpaceOnUse">
<stop stop-color="#F96F38"/>
<stop offset="1" stop-color="#D3261E"/>
</linearGradient>
<linearGradient id="paint11_linear_724_4819" x1="0.0626565" y1="7.34677" x2="21.4403" y2="7.34677" gradientUnits="userSpaceOnUse">
<stop stop-color="#FF7138"/>
<stop offset="1" stop-color="#E64228"/>
</linearGradient>
</defs>
</svg>
