<svg width="80" height="80" viewBox="0 0 80 80" fill="none" xmlns="http://www.w3.org/2000/svg">
<path d="M31.4067 7.20212L13.0734 14.0688C9.57338 15.3688 6.70671 19.5355 6.70671 23.2688V50.2688C6.70671 52.9688 8.47338 56.5355 10.64 58.1355L28.9734 71.8355C32.2067 74.2688 37.5067 74.2688 40.74 71.8355L59.0734 58.1355C61.24 56.5021 63.0067 52.9688 63.0067 50.2688V23.2688C63.0067 19.5355 60.14 15.3688 56.64 14.0688L38.3067 7.20212C36.4067 6.50212 33.3067 6.50212 31.4067 7.20212Z" fill="url(#paint0_linear_2740_80844)"/>
<path d="M64.2 22.5391H41.3667C40.7 22.5391 40.0667 22.5724 39.4667 22.5724C33.7334 22.9057 32.2 25.0057 32.2 31.5391V32.8391C32.2 34.2191 33.32 35.3391 34.7 35.3391H70.8334C71.4964 35.3391 72.1323 35.0757 72.6011 34.6068C73.07 34.138 73.3334 33.5021 73.3334 32.8391V31.5391C73.3334 24.3391 71.5 22.5391 64.2 22.5391ZM34.74 38.9991C34.077 38.9991 33.4411 39.2625 32.9723 39.7313C32.5034 40.2001 32.24 40.836 32.24 41.4991V48.4657C32.24 55.6657 34.0734 57.4991 41.3734 57.4991H64.2067C71.3734 57.4991 73.2734 55.7657 73.34 48.8657V41.4991C73.34 40.836 73.0766 40.2001 72.6078 39.7313C72.139 39.2625 71.5031 38.9991 70.84 38.9991H34.74ZM44.24 51.5657H40.0734C39.0734 51.5657 38.2734 50.7657 38.2734 49.7657C38.2734 48.7657 39.0734 47.9657 40.0734 47.9657H44.24C45.24 47.9657 46.04 48.7657 46.04 49.7657C46.04 50.7657 45.24 51.5657 44.24 51.5657ZM57.74 51.5657H49.44C48.44 51.5657 47.64 50.7657 47.64 49.7657C47.64 48.7657 48.44 47.9657 49.44 47.9657H57.74C58.74 47.9657 59.54 48.7657 59.54 49.7657C59.5734 50.7657 58.74 51.5657 57.74 51.5657Z" fill="#E42313"/>
<defs>
<linearGradient id="paint0_linear_2740_80844" x1="34.8567" y1="6.67712" x2="34.8567" y2="73.6605" gradientUnits="userSpaceOnUse">
<stop stop-color="#FA6834"/>
<stop offset="1" stop-color="#EA4A2B"/>
</linearGradient>
</defs>
</svg>
