<svg width="80" height="80" viewBox="0 0 80 80" fill="none" xmlns="http://www.w3.org/2000/svg">
<path d="M70 6.66663V47C70 53.3333 66.6667 56.6666 60.3334 56.6666H19.6667C13.3334 56.6666 10 53.3333 10 47V6.66663H70Z" fill="url(#paint0_linear_2740_80876)"/>
<path d="M73.3334 9.16663H6.66669C5.30003 9.16663 4.16669 8.03329 4.16669 6.66663C4.16669 5.29996 5.30003 4.16663 6.66669 4.16663H73.3334C74.7 4.16663 75.8334 5.29996 75.8334 6.66663C75.8334 8.03329 74.7 9.16663 73.3334 9.16663ZM55.5667 74.4666C55.1334 75.3333 54.2334 75.8333 53.3334 75.8333C52.9667 75.8333 52.5667 75.7333 52.2334 75.5666L40 69.4666L27.7667 75.5666C27.4334 75.7333 27.0334 75.8333 26.6667 75.8333C25.7667 75.8333 24.8667 75.3333 24.4334 74.4666C24.2805 74.1724 24.1885 73.8503 24.1629 73.5197C24.1373 73.1891 24.1787 72.8567 24.2845 72.5424C24.3903 72.2281 24.5583 71.9384 24.7786 71.6906C24.999 71.4427 25.267 71.2419 25.5667 71.1L37.5 65.1333V56.6666H42.5V65.1333L54.4334 71.1C55.7 71.7 56.2 73.2 55.5667 74.4666ZM25 39.1666C24.4833 39.1697 23.9782 39.0126 23.5544 38.7169C23.1306 38.4212 22.8089 38.0014 22.6334 37.5153C22.458 37.0293 22.4375 36.5008 22.5748 36.0025C22.7121 35.5043 23.0004 35.0609 23.4 34.7333L33.9 25.9666C34.8667 25.1666 36.1 24.8333 37.2667 25.0333C38.4667 25.2333 39.5 25.9666 40.1334 27.0333L43.6334 32.8666L53.4 24.7333C53.6534 24.522 53.9461 24.3629 54.2612 24.2652C54.5763 24.1676 54.9076 24.1332 55.2361 24.1642C55.5646 24.1952 55.8836 24.2909 56.1749 24.4458C56.4662 24.6007 56.724 24.8117 56.9334 25.0666C57.8334 26.1333 57.6667 27.7 56.6 28.6L46.1 37.3666C45.1334 38.1666 43.9 38.5 42.7334 38.3C41.5334 38.1 40.5 37.3666 39.8667 36.3L36.3667 30.4666L26.6 38.6C26.1334 38.9666 25.5667 39.1666 25 39.1666Z" fill="#E42313"/>
<defs>
<linearGradient id="paint0_linear_2740_80876" x1="40" y1="6.66663" x2="40" y2="56.6666" gradientUnits="userSpaceOnUse">
<stop stop-color="#FA6834"/>
<stop offset="1" stop-color="#EA4A2B"/>
</linearGradient>
</defs>
</svg>
