<svg width="80" height="80" viewBox="0 0 80 80" fill="none" xmlns="http://www.w3.org/2000/svg">
<path d="M68.3334 33.9666H58.7001C50.8001 33.9666 44.3667 27.5333 44.3667 19.6333V9.99996C44.3667 8.16663 42.8667 6.66663 41.0334 6.66663H26.9001C16.6334 6.66663 8.3334 13.3333 8.3334 25.2333V54.7666C8.3334 66.6666 16.6334 73.3333 26.9001 73.3333H53.1001C63.3667 73.3333 71.6667 66.6666 71.6667 54.7666V37.3C71.6667 35.4666 70.1667 33.9666 68.3334 33.9666Z" fill="url(#paint0_linear_2740_80851)"/>
<path d="M52.6667 7.36668C51.3001 6.00002 48.9334 6.93335 48.9334 8.83335V20.4667C48.9334 25.3334 53.0667 29.3667 58.1001 29.3667C61.2667 29.4 65.6667 29.4 69.4334 29.4C71.3334 29.4 72.3334 27.1667 71.0001 25.8334C66.2001 21 57.6001 12.3 52.6667 7.36668ZM45.0001 45.8334H25.0001C23.6334 45.8334 22.5001 44.7 22.5001 43.3334C22.5001 41.9667 23.6334 40.8334 25.0001 40.8334H45.0001C46.3667 40.8334 47.5001 41.9667 47.5001 43.3334C47.5001 44.7 46.3667 45.8334 45.0001 45.8334ZM38.3334 59.1667H25.0001C23.6334 59.1667 22.5001 58.0334 22.5001 56.6667C22.5001 55.3 23.6334 54.1667 25.0001 54.1667H38.3334C39.7001 54.1667 40.8334 55.3 40.8334 56.6667C40.8334 58.0334 39.7001 59.1667 38.3334 59.1667Z" fill="#E42313"/>
<defs>
<linearGradient id="paint0_linear_2740_80851" x1="40.0001" y1="6.66663" x2="40.0001" y2="73.3333" gradientUnits="userSpaceOnUse">
<stop stop-color="#FA6834"/>
<stop offset="1" stop-color="#EA4A2B"/>
</linearGradient>
</defs>
</svg>
