<svg width="80" height="80" viewBox="0 0 80 80" fill="none" xmlns="http://www.w3.org/2000/svg">
<path d="M32.5 13.3333V73.3333H47.5V13.3333C47.5 9.66663 46 6.66663 41.5 6.66663H38.5C34 6.66663 32.5 9.66663 32.5 13.3333Z" fill="#E42313"/>
<path d="M10 33.3333V73.3333H23.3333V33.3333C23.3333 29.6666 22 26.6666 18 26.6666H15.3333C11.3333 26.6666 10 29.6666 10 33.3333ZM56.6667 50V73.3333H70V50C70 46.3333 68.6667 43.3333 64.6667 43.3333H62C58 43.3333 56.6667 46.3333 56.6667 50Z" fill="url(#paint0_linear_2740_80868)"/>
<path d="M73.3333 73.3334H6.66667C5.30001 73.3334 4.16667 72.2 4.16667 70.8334C4.16667 69.4667 5.30001 68.3334 6.66667 68.3334H73.3333C74.7 68.3334 75.8333 69.4667 75.8333 70.8334C75.8333 72.2 74.7 73.3334 73.3333 73.3334Z" fill="#E42313"/>
<defs>
<linearGradient id="paint0_linear_2740_80868" x1="40" y1="26.6666" x2="40" y2="73.3333" gradientUnits="userSpaceOnUse">
<stop stop-color="#FA6834"/>
<stop offset="1" stop-color="#EA4A2B"/>
</linearGradient>
</defs>
</svg>
