<svg width="80" height="80" viewBox="0 0 80 80" fill="none" xmlns="http://www.w3.org/2000/svg">
<path d="M24.1334 6.66663H17.8C10.5 6.66663 6.66669 10.5 6.66669 17.7666V24.1C6.66669 31.3666 10.5 35.2 17.7667 35.2H24.1C31.3667 35.2 35.2 31.3666 35.2 24.1V17.7666C35.2334 10.5 31.4 6.66663 24.1334 6.66663Z" fill="url(#paint0_linear_2740_80858)"/>
<path d="M62.2334 6.66663H55.9C48.6334 6.66663 44.8 10.5 44.8 17.7666V24.1C44.8 31.3666 48.6334 35.2 55.9 35.2H62.2334C69.5 35.2 73.3334 31.3666 73.3334 24.1V17.7666C73.3334 10.5 69.5 6.66663 62.2334 6.66663Z" fill="#E42313"/>
<path d="M62.2334 44.7667H55.9C48.6334 44.7667 44.8 48.6001 44.8 55.8667V62.2001C44.8 69.4667 48.6334 73.3001 55.9 73.3001H62.2334C69.5 73.3001 73.3334 69.4667 73.3334 62.2001V55.8667C73.3334 48.6001 69.5 44.7667 62.2334 44.7667Z" fill="url(#paint1_linear_2740_80858)"/>
<path d="M24.1334 44.7667H17.8C10.5 44.7667 6.66669 48.6001 6.66669 55.8667V62.2001C6.66669 69.5001 10.5 73.3334 17.7667 73.3334H24.1C31.3667 73.3334 35.2 69.5001 35.2 62.2334V55.9001C35.2334 48.6001 31.4 44.7667 24.1334 44.7667Z" fill="#E42313"/>
<defs>
<linearGradient id="paint0_linear_2740_80858" x1="20.9335" y1="6.66663" x2="20.9335" y2="35.2" gradientUnits="userSpaceOnUse">
<stop stop-color="#FA6834"/>
<stop offset="1" stop-color="#EA4A2B"/>
</linearGradient>
<linearGradient id="paint1_linear_2740_80858" x1="59.0667" y1="44.7667" x2="59.0667" y2="73.3001" gradientUnits="userSpaceOnUse">
<stop stop-color="#FA6834"/>
<stop offset="1" stop-color="#EA4A2B"/>
</linearGradient>
</defs>
</svg>
