<svg width="59" height="59" viewBox="0 0 59 59" fill="none" xmlns="http://www.w3.org/2000/svg">
<path opacity="0.4" d="M54.0833 22.125V40.4642C54.0833 46.0938 49.5108 50.6417 43.8812 50.6417H15.1187C9.48913 50.6417 4.91663 46.0938 4.91663 40.4642V22.125H54.0833Z" fill="#FFB020"/>
<path d="M54.0833 18.531V22.1202H4.91663V18.531C4.91663 12.9014 9.48913 8.35352 15.1187 8.35352H43.8812C49.5108 8.35352 54.0833 12.9014 54.0833 18.531ZM19.6666 42.4063H14.75C13.742 42.4063 12.9062 41.5705 12.9062 40.5626C12.9062 39.5547 13.742 38.7188 14.75 38.7188H19.6666C20.6745 38.7188 21.5104 39.5547 21.5104 40.5626C21.5104 41.5705 20.6745 42.4063 19.6666 42.4063ZM35.6458 42.4063H25.8125C24.8045 42.4063 23.9687 41.5705 23.9687 40.5626C23.9687 39.5547 24.8045 38.7188 25.8125 38.7188H35.6458C36.6537 38.7188 37.4895 39.5547 37.4895 40.5626C37.4895 41.5705 36.6537 42.4063 35.6458 42.4063Z" fill="#FFB020"/>
</svg>
