<svg width="40" height="40" viewBox="0 0 40 40" fill="none" xmlns="http://www.w3.org/2000/svg">
<rect x="0.5" y="0.5" width="39" height="39" rx="19.5" stroke="#D9DDE3"/>
<path d="M32 20C32 26.6274 26.6274 32 20 32C17.4722 32 15.1269 31.2184 13.1927 29.8837L9.09091 30.9091L10.1658 26.8784C8.80092 24.9307 8 22.5589 8 20C8 13.3726 13.3726 8 20 8C26.6274 8 32 13.3726 32 20Z" fill="url(#paint0_linear_925_51097)"/>
<path fill-rule="evenodd" clip-rule="evenodd" d="M20 34C27.732 34 34 27.732 34 20C34 12.268 27.732 6 20 6C12.268 6 6 12.268 6 20C6 22.5109 6.661 24.8674 7.81847 26.905L6 34L13.3149 32.3038C15.3014 33.3854 17.5789 34 20 34ZM20 31.8462C26.5425 31.8462 31.8462 26.5425 31.8462 20C31.8462 13.4576 26.5425 8.15385 20 8.15385C13.4576 8.15385 8.15385 13.4576 8.15385 20C8.15385 22.5261 8.9445 24.8675 10.2918 26.7902L9.23077 30.7692L13.2799 29.7569C15.1894 31.0746 17.5046 31.8462 20 31.8462Z" fill="white"/>
<path d="M16.5 13.5C16.1672 12.8314 15.6565 12.8906 15.1407 12.8906C14.2188 12.8906 12.7812 13.9949 12.7812 16.0501C12.7813 17.7344 13.5234 19.5782 16.0244 22.3362C18.438 24.998 21.6094 26.3749 24.2422 26.3281C26.875 26.2812 27.4167 24.0156 27.4167 23.2504C27.4167 22.9113 27.2062 22.7421 27.0613 22.6961C26.1641 22.2656 24.5093 21.4633 24.1328 21.3125C23.7563 21.1618 23.5597 21.3657 23.4375 21.4766C23.0961 21.802 22.4193 22.7609 22.1875 22.9766C21.9558 23.1923 21.6103 23.0831 21.4665 23.0016C20.9374 22.7893 19.5029 22.1512 18.3595 21.0427C16.9453 19.6719 16.8623 19.2003 16.5959 18.7804C16.3828 18.4446 16.5392 18.2385 16.6172 18.1484C16.9219 17.7969 17.3426 17.2541 17.5313 16.9844C17.7199 16.7147 17.5702 16.3051 17.4803 16.0501C17.0938 14.9531 16.7663 14.0349 16.5 13.5Z" fill="white"/>
<defs>
<linearGradient id="paint0_linear_925_51097" x1="30.5" y1="11" x2="8" y2="32" gradientUnits="userSpaceOnUse">
<stop stop-color="#5BD066"/>
<stop offset="1" stop-color="#27B43E"/>
</linearGradient>
</defs>
</svg>
