<svg width="40" height="40" viewBox="0 0 40 40" fill="none" xmlns="http://www.w3.org/2000/svg">
<ellipse cx="20" cy="21.1761" rx="20" ry="18.8235" fill="#D9DDE3"/>
<mask id="mask0_2060_26248" style="mask-type:alpha" maskUnits="userSpaceOnUse" x="0" y="2" width="40" height="38">
<ellipse cx="20" cy="21.1761" rx="20" ry="18.8235" fill="url(#paint0_radial_2060_26248)"/>
</mask>
<g mask="url(#mask0_2060_26248)">
<rect x="6.66711" y="13.8037" width="26.6667" height="31.3726" rx="1.6981" fill="#FBFBFC"/>
<rect x="10.0002" y="16.9414" width="6.66667" height="1.88235" rx="0.941176" fill="#B1B5BA"/>
<rect x="10.0004" y="20.0791" width="20" height="1.2549" rx="0.627451" fill="#EEEEEE"/>
<rect x="10.0002" y="23.8428" width="6.66667" height="1.88235" rx="0.941176" fill="#B1B5BA"/>
<rect x="10.0004" y="26.9795" width="20" height="1.2549" rx="0.627451" fill="#EEEEEE"/>
<rect x="10.0002" y="30.7451" width="6.66667" height="1.88235" rx="0.941176" fill="#B1B5BA"/>
<rect x="10.0004" y="33.8828" width="20" height="1.2549" rx="0.627451" fill="#EEEEEE"/>
<rect x="10.0002" y="37.6465" width="6.66667" height="1.88235" rx="0.941176" fill="#B1B5BA"/>
</g>
<rect x="6.66711" width="26.6667" height="10.6667" rx="1.6981" fill="#8C8F93"/>
<rect x="10.0002" y="3.13672" width="6.66667" height="1.88235" rx="0.941176" fill="#B1B5BA"/>
<rect x="10.0004" y="6.27441" width="20" height="1.2549" rx="0.627451" fill="#EEEEEE"/>
<defs>
<radialGradient id="paint0_radial_2060_26248" cx="0" cy="0" r="1" gradientUnits="userSpaceOnUse" gradientTransform="translate(20 2.35254) rotate(90) scale(37.6471 43.0734)">
<stop stop-color="#F9EEE4"/>
<stop offset="1" stop-color="#E3D1BC"/>
</radialGradient>
</defs>
</svg>
