<svg width="400" height="80" viewBox="0 0 400 80" fill="none" xmlns="http://www.w3.org/2000/svg">
<g clip-path="url(#clip0_793_50311)">
<g clip-path="url(#clip1_793_50311)">
<path fill-rule="evenodd" clip-rule="evenodd" d="M80 80C35.8172 80 0 44.1828 0 0H40C40 22.0914 57.9086 40 80 40V80Z" fill="#FF6121"/>
</g>
<g clip-path="url(#clip2_793_50311)">
<path d="M80 80C124.183 80 160 44.1828 160 0H80V80Z" fill="#E42313"/>
<path d="M80 40C102.091 40 120 22.0914 120 0H80V40Z" fill="#FFB020"/>
</g>
<rect width="80" height="16" transform="matrix(0 1 1 0 176 0)" fill="#FB8500"/>
<rect width="80" height="16" transform="matrix(0 1 1 0 208 0)" fill="#FB8500"/>
<rect width="16" height="16" rx="8" transform="matrix(1 0 0 -1 256 64)" fill="#FFB703"/>
<rect width="16" height="16" rx="8" transform="matrix(1 0 0 -1 256 32)" fill="#FFB703"/>
<rect width="16" height="16" rx="8" transform="matrix(1 0 0 -1 288 64)" fill="#FFB703"/>
<rect width="16" height="16" rx="8" transform="matrix(1 0 0 -1 288 32)" fill="#FFB703"/>
<g clip-path="url(#clip3_793_50311)">
<path fill-rule="evenodd" clip-rule="evenodd" d="M360 0C337.909 0 320 17.9086 320 40C320 62.0914 337.909 80 360 80C382.091 80 400 62.0914 400 40C400 17.9086 382.091 0 360 0ZM360 14.8584L334.858 40L360 65.1416L385.142 40L360 14.8584Z" fill="#FF6121"/>
</g>
</g>
<defs>
<clipPath id="clip0_793_50311">
<rect width="400" height="80" fill="white" transform="matrix(1 0 0 -1 0 80)"/>
</clipPath>
<clipPath id="clip1_793_50311">
<rect width="80" height="80" fill="white" transform="matrix(1 0 0 -1 0 80)"/>
</clipPath>
<clipPath id="clip2_793_50311">
<rect width="80" height="80" fill="white" transform="matrix(1 0 0 -1 80 80)"/>
</clipPath>
<clipPath id="clip3_793_50311">
<rect width="80" height="80" fill="white" transform="translate(320)"/>
</clipPath>
</defs>
</svg>
