<svg width="24" height="27" viewBox="0 0 24 27" fill="none" xmlns="http://www.w3.org/2000/svg">
<path d="M7.11157 13.4667H15.6671M7.11157 18.3556H12.4649M9.55602 5.88889H14.4449C16.8893 5.88889 16.8893 4.66667 16.8893 3.44444C16.8893 1 15.6671 1 14.4449 1H9.55602C8.33379 1 7.11157 1 7.11157 3.44444C7.11157 5.88889 8.33379 5.88889 9.55602 5.88889Z" stroke="#FDF7F7" stroke-width="1.83333" stroke-miterlimit="10" stroke-linecap="round" stroke-linejoin="round"/>
<path d="M16.8889 3.46875C20.9589 3.68875 23 5.19208 23 10.7776V18.111C23 22.9999 21.7778 25.4443 15.6667 25.4443H8.33333C2.22222 25.4443 1 22.9999 1 18.111V10.7776C1 5.20431 3.04111 3.68875 7.11111 3.46875" stroke="#FDF7F7" stroke-width="1.83333" stroke-miterlimit="10" stroke-linecap="round" stroke-linejoin="round"/>
</svg>
