<svg width="170" height="32" viewBox="0 0 170 32" fill="none" xmlns="http://www.w3.org/2000/svg">
<mask id="mask0_978_55843" style="mask-type:alpha" maskUnits="userSpaceOnUse" x="33" y="5" width="134" height="25">
<path d="M33.8801 6.22805H40.6983C43.7234 6.22805 46.0648 7.04396 47.7225 8.67578C49.3802 10.3076 50.2153 12.5962 50.2278 15.5417C50.2278 18.4903 49.3927 20.7837 47.7225 22.4218C46.0523 24.0599 43.7109 24.8805 40.6983 24.8837H33.8801V6.22805ZM40.4876 22.1052C44.7364 22.1052 46.8609 19.9174 46.8609 15.5417C46.8609 11.166 44.7364 8.98765 40.4876 9.00655H37.2611V22.1052H40.4876Z" fill="url(#paint0_linear_978_55843)"/>
<path d="M53.178 5.93506H56.7978V9.19082H53.178V5.93506ZM53.3653 24.8837V11.9457H56.6433V24.8837H53.3653Z" fill="url(#paint1_linear_978_55843)"/>
<path d="M72.5086 11.9457V23.6929C72.5086 25.7216 71.9529 27.2558 70.8415 28.2954C69.7302 29.335 68.0912 29.8563 65.9246 29.8595C64.8342 29.8635 63.7485 29.7156 62.6981 29.42C61.737 29.1622 60.8242 28.7472 59.9962 28.1914L60.9327 25.8618C62.4112 26.7981 64.1183 27.3019 65.8637 27.3172C68.1333 27.3172 69.2697 26.1879 69.2728 23.9292V22.2375C68.8948 22.9559 68.3104 23.5423 67.5964 23.9197C66.8189 24.327 65.9529 24.5317 65.077 24.5151C64.0385 24.5418 63.0143 24.2664 62.1267 23.7218C61.2391 23.1772 60.5255 22.3863 60.0711 21.4436C59.5631 20.3993 59.3109 19.2471 59.3359 18.0839C59.3122 16.9179 59.5591 15.7625 60.057 14.71C60.5021 13.7686 61.208 12.9775 62.0894 12.4324C62.9907 11.8864 64.0258 11.6064 65.077 11.6244C65.9529 11.6078 66.8189 11.8125 67.5964 12.2198C68.3104 12.5972 68.8948 13.1836 69.2728 13.902V11.9457H72.5086ZM68.3784 20.9239C69.0023 20.1177 69.3136 19.1097 69.2541 18.0886C69.3135 17.0573 68.9989 16.0395 68.369 15.2251C68.049 14.8986 67.6679 14.6395 67.2479 14.4626C66.8279 14.2857 66.3773 14.1946 65.9223 14.1946C65.4672 14.1946 65.0166 14.2857 64.5966 14.4626C64.1766 14.6395 63.7956 14.8986 63.4755 15.2251C62.8411 16.0355 62.5244 17.0531 62.5858 18.0839C62.5263 19.1073 62.8431 20.1168 63.4755 20.9191C63.7946 21.2473 64.1753 21.508 64.5954 21.686C65.0156 21.8639 65.4666 21.9556 65.9223 21.9556C66.3779 21.9556 66.8289 21.8639 67.2491 21.686C67.6692 21.508 68.0499 21.2473 68.369 20.9191L68.3784 20.9239Z" fill="url(#paint2_linear_978_55843)"/>
<path d="M75.707 5.93506H79.3268V9.19082H75.707V5.93506ZM75.8896 24.8837V11.9457H79.1675V24.8837H75.8896Z" fill="url(#paint3_linear_978_55843)"/>
<path d="M90.3126 22.5305L90.1534 24.9876C89.6744 25.0404 89.1929 25.0672 88.7111 25.068C86.9129 25.068 85.583 24.6521 84.726 23.811C83.8691 22.9699 83.4429 21.7271 83.4429 20.0686V14.4312H80.9751V11.9457H83.4429V8.08037H86.7209V11.9457H90.1019V14.4312H86.7209V20.0166C86.7209 21.7398 87.5154 22.6029 89.1045 22.6061C89.5083 22.6056 89.9118 22.5804 90.3126 22.5305Z" fill="url(#paint4_linear_978_55843)"/>
<path d="M101.743 12.9475C102.618 13.8327 103.055 15.192 103.055 17.0254V24.8837H99.9358V22.899C99.6498 23.5748 99.1577 24.1409 98.531 24.5151C97.8581 24.911 97.0901 25.1121 96.3113 25.0963C95.5004 25.1084 94.6982 24.927 93.9699 24.5671C93.3 24.2396 92.7292 23.7371 92.3169 23.1117C91.9163 22.4994 91.706 21.7804 91.7128 21.0467C91.6704 20.2329 91.9272 19.432 92.434 18.7975C93.0736 18.1657 93.8916 17.7497 94.7754 17.6067C96.2538 17.3259 97.7574 17.2023 99.2615 17.2381H99.9171V16.6285C99.9768 15.9491 99.7757 15.2724 99.3551 14.7384C99.097 14.5202 98.7985 14.3561 98.4769 14.2555C98.1553 14.1549 97.8171 14.1199 97.482 14.1524C96.7562 14.1614 96.0361 14.2825 95.3467 14.5116C94.5812 14.7573 93.8459 15.0902 93.1551 15.5039L92.2513 13.231C93.9158 12.2401 95.803 11.6937 97.7349 11.6433C99.5331 11.6244 100.872 12.0686 101.743 12.9475ZM99.1116 21.8264C99.6729 21.2026 99.9689 20.3812 99.9358 19.5393V18.9817H99.4675C98.5563 18.9642 97.6451 19.0179 96.7421 19.1424C96.2306 19.185 95.7424 19.3771 95.3373 19.6953C95.1946 19.8359 95.0833 20.0055 95.0106 20.1929C94.9379 20.3803 94.9056 20.5811 94.9158 20.7821C94.9127 21.0446 94.9659 21.3047 95.0718 21.5445C95.1777 21.7843 95.3338 21.9982 95.5293 22.1713C95.9291 22.5382 96.4549 22.7332 96.995 22.7148C97.3899 22.7251 97.7825 22.6514 98.1472 22.4983C98.5119 22.3452 98.8405 22.1163 99.1116 21.8264Z" fill="url(#paint5_linear_978_55843)"/>
<path d="M106.389 24.8837V6.22805H109.667V24.8837H106.389Z" fill="url(#paint6_linear_978_55843)"/>
<path d="M113.324 6.22805H121.397C123.373 6.22805 124.912 6.72579 126.014 7.72126C127.116 8.71673 127.667 10.1154 127.667 11.9174C127.667 13.7193 127.116 15.1211 126.014 16.1229C124.912 17.1247 123.373 17.6287 121.397 17.635H116.714V24.8837H113.324V6.22805ZM120.98 15.0125C123.303 15.0125 124.466 13.9902 124.469 11.9457C124.503 11.5191 124.444 11.0902 124.294 10.6898C124.144 10.2894 123.908 9.9275 123.603 9.6303C123.025 9.12311 122.151 8.87109 120.98 8.87424H116.705V15.0172L120.98 15.0125Z" fill="url(#paint7_linear_978_55843)"/>
<path d="M139.548 12.9475C140.422 13.8327 140.859 15.192 140.859 17.0254V24.8837H137.721V22.899C137.435 23.5748 136.943 24.1409 136.317 24.5151C135.645 24.9113 134.879 25.1125 134.102 25.0963C133.291 25.1062 132.489 24.925 131.76 24.5671C131.091 24.2407 130.521 23.7378 130.112 23.1117C129.711 22.4994 129.501 21.7804 129.508 21.0467C129.461 20.2323 129.718 19.4298 130.229 18.7974C130.867 18.1639 131.686 17.7476 132.57 17.6067C134.049 17.3256 135.552 17.2021 137.056 17.2381H137.707V16.6285C137.767 15.9491 137.566 15.2724 137.145 14.7384C136.888 14.5198 136.589 14.3553 136.267 14.2547C135.946 14.1541 135.607 14.1193 135.272 14.1524C134.545 14.1613 133.823 14.2824 133.132 14.5116C132.369 14.7582 131.635 15.0911 130.945 15.5039L130.009 13.2263C131.671 12.2346 133.557 11.6881 135.488 11.6385C137.323 11.6244 138.658 12.0686 139.548 12.9475ZM136.911 21.8264C137.475 21.2039 137.771 20.3816 137.735 19.5393V18.9817H137.267C136.354 18.9642 135.442 19.018 134.537 19.1424C134.026 19.185 133.537 19.3771 133.132 19.6953C132.99 19.8363 132.88 20.0061 132.808 20.1935C132.736 20.3808 132.705 20.5815 132.715 20.7821C132.707 21.0418 132.755 21.3002 132.854 21.5399C132.953 21.7795 133.102 21.9949 133.291 22.1713C133.693 22.5385 134.22 22.7334 134.762 22.7148C135.16 22.7278 135.556 22.6554 135.924 22.5022C136.292 22.3491 136.624 22.1187 136.897 21.8264H136.911Z" fill="url(#paint8_linear_978_55843)"/>
<path d="M145.762 24.6711C144.883 24.4272 144.06 24.0149 143.336 23.4566L144.273 21.1507C145.629 22.1549 147.273 22.6857 148.955 22.6628C149.551 22.6986 150.146 22.5695 150.674 22.2895C150.857 22.1826 151.007 22.0278 151.11 21.8413C151.212 21.6549 151.262 21.444 151.255 21.231C151.263 21.0593 151.231 20.888 151.16 20.7317C151.089 20.5754 150.982 20.4387 150.847 20.3332C150.4 20.0463 149.903 19.849 149.382 19.752L147.284 19.2794C146.296 19.1067 145.38 18.6468 144.647 17.9564C144.356 17.6503 144.127 17.2889 143.975 16.893C143.823 16.4971 143.751 16.0748 143.762 15.6504C143.751 14.8929 143.986 14.1526 144.432 13.5429C144.916 12.9067 145.564 12.4164 146.305 12.1253C147.185 11.7732 148.126 11.6013 149.073 11.6197C149.968 11.6175 150.859 11.7611 151.709 12.0449C152.521 12.3062 153.281 12.7075 153.957 13.231L153.02 15.4803C151.88 14.5785 150.483 14.0685 149.035 14.0249C148.449 13.9915 147.865 14.1293 147.354 14.4218C147.165 14.536 147.009 14.6991 146.903 14.8943C146.796 15.0894 146.744 15.3097 146.75 15.5322C146.746 15.6976 146.778 15.8618 146.844 16.013C146.911 16.1642 147.01 16.2986 147.134 16.4064C147.49 16.6825 147.908 16.8644 148.351 16.9357L150.529 17.4366C151.573 17.6033 152.547 18.0672 153.339 18.7738C153.639 19.0922 153.873 19.4684 154.026 19.8801C154.179 20.2918 154.248 20.7304 154.228 21.1696C154.24 21.7259 154.114 22.2763 153.863 22.7713C153.611 23.2663 153.241 23.6902 152.786 24.0048C151.828 24.7104 150.526 25.0633 148.881 25.0633C147.828 25.0836 146.777 24.9515 145.762 24.6711Z" fill="url(#paint9_linear_978_55843)"/>
<path d="M158.48 24.671C157.602 24.4271 156.778 24.0148 156.055 23.4566L156.991 21.1507C158.348 22.1548 159.992 22.6857 161.674 22.6628C162.27 22.6986 162.864 22.5695 163.393 22.2895C163.577 22.1839 163.729 22.0295 163.833 21.843C163.937 21.6565 163.989 21.4449 163.983 21.231C163.991 21.0593 163.959 20.888 163.888 20.7317C163.817 20.5754 163.71 20.4387 163.575 20.3332C163.131 20.0474 162.637 19.8501 162.119 19.752L160.021 19.2794C159.027 19.1101 158.103 18.6501 157.366 17.9563C157.075 17.6465 156.849 17.2813 156.7 16.8821C156.552 16.4828 156.483 16.0577 156.5 15.6315C156.488 14.874 156.724 14.1337 157.169 13.524C157.653 12.8867 158.301 12.3962 159.042 12.1064C159.922 11.7543 160.863 11.5824 161.81 11.6008C162.706 11.5986 163.596 11.7422 164.446 12.026C165.252 12.295 166.007 12.7027 166.675 13.231L165.739 15.4803C164.598 14.5785 163.202 14.0685 161.754 14.0249C161.167 13.9915 160.583 14.1293 160.072 14.4218C159.883 14.536 159.727 14.6991 159.621 14.8942C159.515 15.0894 159.462 15.3097 159.468 15.5322C159.464 15.6976 159.496 15.8618 159.563 16.013C159.629 16.1642 159.728 16.2986 159.852 16.4064C160.208 16.6825 160.627 16.8644 161.07 16.9357L163.247 17.4365C164.291 17.6033 165.266 18.0672 166.057 18.7738C166.358 19.0921 166.591 19.4684 166.744 19.8801C166.897 20.2918 166.966 20.7304 166.947 21.1696C166.959 21.7258 166.833 22.2763 166.581 22.7713C166.329 23.2663 165.959 23.6902 165.504 24.0048C164.546 24.7104 163.244 25.0632 161.599 25.0632C160.546 25.0836 159.496 24.9515 158.48 24.671Z" fill="url(#paint10_linear_978_55843)"/>
</mask>
<g mask="url(#mask0_978_55843)">
<rect x="33.2852" y="5.3335" width="137.135" height="25.3333" fill="url(#paint11_linear_978_55843)"/>
</g>
<path d="M22.0513 14.9747C23.873 13.2215 25.0858 11.4165 21.8266 9.72952L1.25499 0.0567533C1.12434 0.00452676 0.982035 -0.010752 0.843412 0.0125618C0.704788 0.0358756 0.575091 0.0968988 0.468281 0.189063L0.383991 0.255218C0.187313 0.430055 0.0936566 0.595442 0.0702426 1.12468V8.08038C0.0671467 8.29062 0.105344 8.4994 0.18263 8.69467C0.402193 9.12624 0.770127 9.46223 1.21753 9.63974L1.3065 9.68227L18.0991 17.0396C18.0991 17.0396 19.3447 17.5736 22.0513 14.9747Z" fill="url(#paint12_linear_978_55843)"/>
<path d="M16.4227 17.5689L7.68924 21.4484C7.66345 21.4604 7.63511 21.4655 7.60682 21.4635C7.57853 21.4614 7.55122 21.4522 7.52741 21.4366C7.5036 21.4211 7.48406 21.3997 7.4706 21.3745C7.45714 21.3493 7.4502 21.3211 7.45041 21.2925V16.4916C7.46377 16.0528 7.34342 15.6204 7.10561 15.2529C6.86779 14.8853 6.52395 14.6002 6.1205 14.436H6.08772C5.78333 14.299 2.19162 12.6688 1.21291 12.4514C0.97694 12.3788 0.722118 12.4031 0.503796 12.519C0.285475 12.6349 0.121287 12.8331 0.0468958 13.0704C0.0147284 13.1532 -0.00117643 13.2414 6.77417e-05 13.3303C6.77417e-05 14.2092 6.77417e-05 20.2671 0.0328474 24.6711C0.0609442 28.8814 4.97789 30.8141 7.08984 30.0769C7.20691 30.0391 18.2958 25.7107 18.2958 25.7107C24.3834 23.0172 24.2242 20.6215 24.3834 20.1915V13.2311C24.3857 12.7053 24.2412 12.1895 23.9667 11.7426C23.8543 11.563 23.7372 11.3315 23.6108 11.1614C23.1097 14.0911 20.5342 15.9954 16.4227 17.5689Z" fill="#D7281E"/>
<defs>
<linearGradient id="paint0_linear_978_55843" x1="33.8801" y1="20.903" x2="1117.15" y2="20.903" gradientUnits="userSpaceOnUse">
<stop stop-color="#F96F38"/>
<stop offset="1" stop-color="#D3261E"/>
</linearGradient>
<linearGradient id="paint1_linear_978_55843" x1="-675.539" y1="21.0415" x2="4216.71" y2="21.0415" gradientUnits="userSpaceOnUse">
<stop stop-color="#F96F38"/>
<stop offset="1" stop-color="#D3261E"/>
</linearGradient>
<linearGradient id="paint2_linear_978_55843" x1="-223.221" y1="14.169" x2="1120.98" y2="14.169" gradientUnits="userSpaceOnUse">
<stop stop-color="#F96F38"/>
<stop offset="1" stop-color="#D3261E"/>
</linearGradient>
<linearGradient id="paint3_linear_978_55843" x1="-1503.74" y1="21.0415" x2="3388.51" y2="21.0415" gradientUnits="userSpaceOnUse">
<stop stop-color="#F96F38"/>
<stop offset="1" stop-color="#D3261E"/>
</linearGradient>
<linearGradient id="paint4_linear_978_55843" x1="-637.275" y1="19.764" x2="1259.27" y2="19.764" gradientUnits="userSpaceOnUse">
<stop stop-color="#F96F38"/>
<stop offset="1" stop-color="#D3261E"/>
</linearGradient>
<linearGradient id="paint5_linear_978_55843" x1="-644.331" y1="17.061" x2="916.446" y2="17.061" gradientUnits="userSpaceOnUse">
<stop stop-color="#F96F38"/>
<stop offset="1" stop-color="#D3261E"/>
</linearGradient>
<linearGradient id="paint6_linear_978_55843" x1="-2909.62" y1="20.903" x2="2492.82" y2="20.903" gradientUnits="userSpaceOnUse">
<stop stop-color="#F96F38"/>
<stop offset="1" stop-color="#D3261E"/>
</linearGradient>
<linearGradient id="paint7_linear_978_55843" x1="-703.152" y1="20.903" x2="531.491" y2="20.903" gradientUnits="userSpaceOnUse">
<stop stop-color="#F96F38"/>
<stop offset="1" stop-color="#D3261E"/>
</linearGradient>
<linearGradient id="paint8_linear_978_55843" x1="-1086.56" y1="17.0652" x2="472.798" y2="17.0652" gradientUnits="userSpaceOnUse">
<stop stop-color="#F96F38"/>
<stop offset="1" stop-color="#D3261E"/>
</linearGradient>
<linearGradient id="paint9_linear_978_55843" x1="-1302.96" y1="17.1106" x2="322.42" y2="17.1106" gradientUnits="userSpaceOnUse">
<stop stop-color="#F96F38"/>
<stop offset="1" stop-color="#D3261E"/>
</linearGradient>
<linearGradient id="paint10_linear_978_55843" x1="-1458.29" y1="17.1285" x2="167.083" y2="17.1285" gradientUnits="userSpaceOnUse">
<stop stop-color="#F96F38"/>
<stop offset="1" stop-color="#D3261E"/>
</linearGradient>
<linearGradient id="paint11_linear_978_55843" x1="174.534" y1="7.33351" x2="33.4437" y2="27.762" gradientUnits="userSpaceOnUse">
<stop stop-color="#D3261E"/>
<stop offset="1" stop-color="#F96F38"/>
</linearGradient>
<linearGradient id="paint12_linear_978_55843" x1="0.0702426" y1="8.54346" x2="23.8636" y2="8.54346" gradientUnits="userSpaceOnUse">
<stop stop-color="#FF7138"/>
<stop offset="1" stop-color="#E64228"/>
</linearGradient>
</defs>
</svg>
