<svg width="180" height="180" viewBox="0 0 180 180" fill="none" xmlns="http://www.w3.org/2000/svg">
<g clip-path="url(#clip0_978_57476)">
<rect width="180" height="180" fill="white"/>
<path d="M79.6493 154.663C76.8508 156.402 72.9861 159.679 70.4874 161.351C67.9888 163.024 56.8653 164.898 48.1658 163.525C37.2714 161.807 31.217 158.325 22.6791 151.319C8.3979 139.6 1.47795 127.693 1.02368 109.183C0.546488 89.7389 7.26453 76.1577 22.6791 64.3718C38.4845 52.287 54.0099 58.0821 66.9893 44.1399C73.2981 37.363 72.6091 30.0825 79.6493 24.0751C89.5065 15.6641 98.6103 15.4098 111.521 15.0491L111.633 15.046C130.182 14.5276 142.515 18.314 156.609 30.4289C168.363 40.5321 172.971 49.4489 177.265 64.3718C181.778 80.0553 182.665 90.7842 180 106C177.335 121.216 171.614 139.09 156.609 151.319C147.08 159.086 141.784 161.853 127.624 163.525C113.465 165.197 101.138 152.49 94.9747 151.319C88.8112 150.149 83.1475 152.49 79.6493 154.663Z" fill="#FDF7F7"/>
<circle cx="22.7545" cy="91.7363" r="2.03802" transform="rotate(-17.9761 22.7545 91.7363)" fill="#F4CACA"/>
<circle cx="77.171" cy="32.7849" r="2.03802" transform="rotate(-17.9761 77.171 32.7849)" fill="#F4CACA"/>
<circle cx="163.33" cy="86.0679" r="1.63042" transform="rotate(-17.9761 163.33 86.0679)" stroke="#E42313" stroke-width="0.81521"/>
<circle cx="134.988" cy="23.1487" r="1.63042" transform="rotate(-17.9761 134.988 23.1487)" stroke="#E42313" stroke-width="0.81521"/>
<circle cx="68.6676" cy="36.7529" r="1.63042" transform="rotate(-17.9761 68.6676 36.7529)" stroke="#E42313" stroke-width="0.81521"/>
<circle cx="11.984" cy="120.078" r="1.63042" transform="rotate(-17.9761 11.984 120.078)" stroke="#E42313" stroke-width="0.81521"/>
<path d="M144.891 52.134L148.742 54.0984" stroke="#FF6121" stroke-width="1.22281" stroke-linecap="round"/>
<path d="M147.799 51.1904L145.834 55.0417" stroke="#FF6121" stroke-width="1.22281" stroke-linecap="round"/>
<path d="M33.791 49.2998L37.6423 51.2641" stroke="#FF6121" stroke-width="1.22281" stroke-linecap="round"/>
<path d="M36.6987 48.3564L34.7344 52.2077" stroke="#FF6121" stroke-width="1.22281" stroke-linecap="round"/>
</g>
<path d="M118.766 135.099L118.763 135.171L122.39 173.522H95.9249L92.4945 149.968L90.9846 172.918L63.8071 172.616L66.694 142.485L69.149 128.519V128.516L69.5174 126.414H118.044L118.108 127.175L118.766 135.099Z" fill="#FFB020"/>
<path d="M48.8273 157.331C51.6301 157.842 54.5527 154.685 55.3552 150.281C55.7065 148.353 55.5931 146.505 55.1196 144.994L55.5494 142.455L62.7615 108.299C62.7615 108.299 76.0423 81.7333 76.0419 77.1213C76.0416 72.5093 72.2002 70.2476 72.2002 70.2476L67.0019 70.2962L50.7007 110.11L47.7648 139.531L47.2899 143.568C46.314 144.815 45.5564 146.503 45.2053 148.431C44.4028 152.836 46.0244 156.82 48.8273 157.331Z" fill="#F4CACA"/>
<path d="M101.403 53.7902L96.571 42.6172L80.8684 45.3349L79.8115 58.4802L101.403 53.7902Z" fill="#EEAFAF"/>
<path opacity="0.1" d="M101.707 53.6925L96.6394 42.6326L80.1682 45.3228L79.0596 58.3351L101.707 53.6925Z" fill="#F4CACA"/>
<path d="M135.827 77.042C135.827 77.042 124.655 56.2059 122.541 54.0921C121.6 53.1511 120.121 53.138 118.768 53.4123L103.215 48.0527L97.9427 45.0906L97.5953 50.726L80.2876 53.8325C80.3838 50.3958 80.8686 49.0886 80.8686 49.0886L74.5272 56.5079L62.1463 62.5473L62.1531 62.6017C61.2445 62.9189 60.3831 63.4615 59.7305 64.3592C57.3148 67.6809 50.6714 108.145 50.6714 108.145L64.8641 111.165L66.7956 99.0438L68.1858 109.957L69.2427 130.34C69.2427 130.34 88.5689 146.949 97.93 140.909C107.291 134.87 118.766 135.172 118.766 135.172L119.052 125.724C119.256 125.398 119.37 125.207 119.37 125.207L119.068 91.6924V82.7745C121.369 85.9795 124.145 88.7358 127.372 90.0268C137.941 94.2544 135.827 77.042 135.827 77.042V77.042Z" fill="#E42313"/>
<path d="M87.3814 47.3007C95.3597 47.3007 101.827 40.8331 101.827 32.8548C101.827 24.8766 95.3597 18.4089 87.3814 18.4089C79.4032 18.4089 72.9355 24.8766 72.9355 32.8548C72.9355 40.8331 79.4032 47.3007 87.3814 47.3007Z" fill="#F4CACA"/>
<path d="M101.868 23.8423C104.92 25.6407 102.534 28.0289 102.534 28.0289C102.057 27.7246 101.516 27.533 100.954 27.4687C100.599 27.4245 100.239 27.4593 99.8987 27.5706C99.5587 27.682 99.2475 27.8671 98.9874 28.1126C98.7273 28.3582 98.5248 28.6582 98.3943 28.9911C98.2638 29.3241 98.2086 29.6817 98.2326 30.0383C94.3436 31.8206 94.7103 28.0247 94.7103 28.0247C91.7992 30.9558 90.1251 27.4006 90.9352 25.1187C89.5166 29.3765 84.698 27.8213 84.0632 24.7994C84.4046 28.2521 80.9915 29.8706 80.3622 27.156C80.2889 27.8015 80.1348 28.4354 79.9035 29.0427C78.561 32.4661 75.3147 30.8368 75.4 28.5653C73.2936 33.5219 70.1084 30.3786 72.625 26.8594C68.9716 25.8194 70.8152 21.2803 73.6781 21.9827C71.4675 18.2835 75.4468 16.3589 78.2124 17.8747C77.0431 13.2688 83.4448 13.288 84.5435 15.2346C87.3083 10.7456 91.2621 11.4551 92.8298 16.1251C93.5032 13.2892 97.4814 13.0591 98.5381 19.1163C101.731 17.4533 104.059 21.2962 101.868 23.8423Z" fill="#151718"/>
<path d="M101.029 27.4273C100.673 27.3824 100.311 27.4171 99.9699 27.5287C99.6288 27.6402 99.3166 27.8261 99.0559 28.0728C98.7951 28.3194 98.5922 28.6209 98.4615 28.9556C98.3309 29.2903 98.2759 29.6498 98.3004 30.0085C94.3992 31.7967 94.7631 27.9796 94.7631 27.9796C91.8446 30.9242 90.1605 27.3471 90.9711 25.0531C89.552 29.3335 84.7142 27.7643 84.0738 24.7245C84.4201 28.1972 80.9965 29.8212 80.3619 27.0904C80.289 27.7396 80.135 28.3769 79.9036 28.9874C77.6705 26.4789 78.1577 21.6799 82.2159 21.9985C81.6314 19.4538 86.3641 15.5887 88.9074 21.5427C89.6939 17.8846 94.6305 16.8819 94.799 23.1379C95.9365 21.1483 100.752 21.6521 101.029 27.4273Z" fill="#151718"/>
<path d="M130.558 71.9758L115.898 64.963C115.898 64.963 115.31 60.2692 112.56 58.595C112.093 57.48 111.555 56.255 111.067 55.2844C109.859 52.8841 111.671 48.3545 110.161 48.3545C108.651 48.3545 106.419 53.1182 106.537 54.3939C106.628 55.3732 107.437 57.0829 107.605 58.5795C105.763 59.2739 104.278 60.4641 103.302 61.4117C102.456 62.2318 102.142 63.4554 102.473 64.5857C103.43 67.8612 105.822 74.6261 109.255 74.6261C113.785 74.6261 114.992 73.7201 114.992 73.7201C114.992 73.7201 124.354 85.497 131.299 86.403C138.244 87.3089 130.558 71.9758 130.558 71.9758V71.9758Z" fill="#F4CACA"/>
<path d="M102.916 29.7987C102.916 31.0495 101.902 32.0635 100.651 32.0635C99.3999 32.0635 98.084 31.0495 98.084 29.7987C98.084 28.5479 99.7019 27.2319 100.953 27.2319C102.204 27.2319 102.916 28.5479 102.916 29.7987Z" fill="#151718"/>
<path d="M83.1368 35.3853C83.5537 35.3853 83.8917 35.0474 83.8917 34.6304C83.8917 34.2135 83.5537 33.8755 83.1368 33.8755C82.7198 33.8755 82.3818 34.2135 82.3818 34.6304C82.3818 35.0474 82.7198 35.3853 83.1368 35.3853Z" fill="#151718"/>
<path d="M87.9683 34.4793C88.3853 34.4793 88.7232 34.1413 88.7232 33.7244C88.7232 33.3075 88.3853 32.9695 87.9683 32.9695C87.5514 32.9695 87.2134 33.3075 87.2134 33.7244C87.2134 34.1413 87.5514 34.4793 87.9683 34.4793Z" fill="#151718"/>
<path d="M86.9182 30.0693C86.995 31.0745 90.3305 31.4641 90.5225 30.8938C90.7913 30.0354 86.7262 27.7146 86.9182 30.0693Z" fill="#151718"/>
<path d="M80.8721 31.3754C80.8721 31.9195 84.3155 32.1426 84.1904 30.2872C84.1071 28.9432 80.945 29.9172 80.8721 31.3754Z" fill="#151718"/>
<path d="M85.8376 34.4792C86.4644 35.6002 86.4074 36.2791 85.9971 37C85.5869 37.721 84.3276 39.3629 84.9829 40.8207" stroke="#EEAFAF" stroke-width="0.226479" stroke-linecap="round" stroke-linejoin="round"/>
<path d="M87.5152 42.3306C86.9878 44.1008 84.2527 43.0941 83.2876 42.8908C83.2876 42.8908 84.2844 45.6344 86.0406 44.9338C88.0605 44.1049 87.5152 42.3306 87.5152 42.3306Z" fill="white"/>
<path d="M100.233 35.115C100.444 35.5658 100.36 36.1467 100.009 36.7375C99.6594 37.3255 99.0561 37.9007 98.28 38.3172C97.5041 38.7336 96.7128 38.9026 96.0656 38.8482C95.417 38.7936 94.9357 38.5192 94.7258 38.0716C94.5143 37.6205 94.5973 37.0395 94.9479 36.4489C95.2969 35.8611 95.9 35.2859 96.6786 34.8694C97.4573 34.4529 98.2486 34.284 98.8951 34.3384C99.5429 34.3929 100.023 34.6672 100.233 35.115Z" fill="#EEAFAF" stroke="#EEAFAF" stroke-width="0.301972"/>
<path d="M77.6309 37.9047C77.5155 38.2009 77.26 38.4387 76.8884 38.6042C76.5495 38.7552 76.1219 38.8419 75.642 38.8561C75.5695 37.6734 75.5681 36.4879 75.6378 35.3051C76.3489 35.6199 76.9169 36.0454 77.2754 36.4955C77.6673 36.9876 77.7936 37.4861 77.6308 37.9048L77.7716 37.9595L77.6309 37.9047Z" fill="#EEAFAF" stroke="#EEAFAF" stroke-width="0.301972"/>
<defs>
<clipPath id="clip0_978_57476">
<rect width="180" height="180" fill="white"/>
</clipPath>
</defs>
</svg>
