<svg width="180" height="180" viewBox="0 0 180 180" fill="none" xmlns="http://www.w3.org/2000/svg">
<g clip-path="url(#clip0_1427_59790)">
<rect width="180" height="180" fill="white"/>
<path d="M79.6493 154.663C76.8508 156.402 72.9861 159.679 70.4874 161.351C67.9888 163.024 56.8653 164.898 48.1658 163.525C37.2714 161.807 31.217 158.325 22.6791 151.319C8.3979 139.6 1.47795 127.693 1.02368 109.183C0.546488 89.7389 7.26453 76.1577 22.6791 64.3718C38.4845 52.287 54.0099 58.0821 66.9893 44.1399C73.2981 37.363 72.6091 30.0825 79.6493 24.0751C89.5065 15.6641 98.6103 15.4098 111.521 15.0491L111.633 15.046C130.182 14.5276 142.515 18.314 156.609 30.4289C168.363 40.5321 172.971 49.4489 177.265 64.3718C181.778 80.0553 182.665 90.7842 180 106C177.335 121.216 171.614 139.09 156.609 151.319C147.08 159.086 141.784 161.853 127.624 163.525C113.465 165.197 101.138 152.49 94.9747 151.319C88.8112 150.149 83.1475 152.49 79.6493 154.663Z" fill="#FDF7F7"/>
<path d="M88.7434 46.9837C90.3394 46.0558 92.3102 46.0543 93.9077 46.9797L149.352 79.0994C153.903 81.7356 152.033 88.6949 146.774 88.6949H36.083C30.8282 88.6949 28.9546 81.7446 33.4974 79.1034L88.7434 46.9837Z" fill="#C40D0E"/>
<rect x="45.6943" y="58.5596" width="90.6942" height="90.6942" rx="8.50258" fill="white"/>
<rect x="51.3623" y="65.3616" width="39.6787" height="2.26735" rx="1.13368" fill="#E42313"/>
<rect x="51.3623" y="72.1636" width="79.3574" height="2.26735" rx="1.13368" fill="#FDF7F7"/>
<rect x="51.3623" y="78.9658" width="79.3574" height="2.26735" rx="1.13368" fill="#FDF7F7"/>
<rect x="51.3623" y="85.7678" width="79.3574" height="2.26735" rx="1.13368" fill="#FDF7F7"/>
<rect x="51.3623" y="92.5698" width="79.3574" height="2.26735" rx="1.13368" fill="#FDF7F7"/>
<rect x="51.3623" y="99.3718" width="79.3574" height="2.26735" rx="1.13368" fill="#FDF7F7"/>
<rect x="51.3623" y="106.174" width="79.3574" height="2.26735" rx="1.13368" fill="#FDF7F7"/>
<rect x="51.3623" y="112.976" width="79.3574" height="2.26735" rx="1.13368" fill="#FDF7F7"/>
<rect x="51.3623" y="119.778" width="65.7533" height="2.26735" rx="1.13368" fill="#FDF7F7"/>
<path d="M86.7362 120.902C89.3077 123.109 89.0804 127.156 86.2778 129.06L38.6582 161.426C35.2428 163.747 30.6222 161.301 30.6222 157.171L30.6222 83.9411C30.6222 79.5447 35.7802 77.1741 39.1166 80.0372L86.7362 120.902Z" fill="#E42313"/>
<path d="M95.9132 120.902C93.3417 123.109 93.5691 127.156 96.3716 129.06L143.991 161.426C147.407 163.747 152.027 161.301 152.027 157.171V83.9411C152.027 79.5447 146.869 77.1741 143.533 80.0372L95.9132 120.902Z" fill="#E42313"/>
<path d="M88.7594 121.037C90.3477 120.123 92.3021 120.123 93.8903 121.037L149.74 153.169C154.305 155.796 152.442 162.772 147.174 162.772H35.4754C30.2082 162.772 28.3445 155.796 32.91 153.169L88.7594 121.037Z" fill="#C40D0E"/>
<circle cx="128.995" cy="59.6689" r="14.1467" fill="#E42313"/>
<path d="M122.051 58.2686L127.104 63.1886C127.3 63.3787 127.609 63.3836 127.81 63.1997L136.455 55.2964" stroke="white" stroke-width="2.57213" stroke-linecap="round"/>
<circle cx="22.754" cy="91.7363" r="2.03802" transform="rotate(-17.9761 22.754 91.7363)" fill="#F4CACA"/>
<circle cx="77.171" cy="32.7849" r="2.03802" transform="rotate(-17.9761 77.171 32.7849)" fill="#F4CACA"/>
<circle cx="163.33" cy="86.0679" r="1.63042" transform="rotate(-17.9761 163.33 86.0679)" stroke="#E42313" stroke-width="0.81521"/>
<circle cx="134.988" cy="23.1487" r="1.63042" transform="rotate(-17.9761 134.988 23.1487)" stroke="#E42313" stroke-width="0.81521"/>
<circle cx="68.6681" cy="36.7529" r="1.63042" transform="rotate(-17.9761 68.6681 36.7529)" stroke="#E42313" stroke-width="0.81521"/>
<circle cx="11.9845" cy="120.078" r="1.63042" transform="rotate(-17.9761 11.9845 120.078)" stroke="#E42313" stroke-width="0.81521"/>
<path d="M144.891 52.134L148.742 54.0984" stroke="#FF6121" stroke-width="1.22281" stroke-linecap="round"/>
<path d="M147.799 51.1904L145.834 55.0417" stroke="#FF6121" stroke-width="1.22281" stroke-linecap="round"/>
<path d="M33.791 49.2998L37.6423 51.2641" stroke="#FF6121" stroke-width="1.22281" stroke-linecap="round"/>
<path d="M36.6992 48.3564L34.7349 52.2077" stroke="#FF6121" stroke-width="1.22281" stroke-linecap="round"/>
</g>
<defs>
<clipPath id="clip0_1427_59790">
<rect width="180" height="180" fill="white"/>
</clipPath>
</defs>
</svg>
