<svg width="32" height="32" viewBox="0 0 32 32" fill="none" xmlns="http://www.w3.org/2000/svg">
<rect x="0.5" y="0.5" width="31" height="31" rx="7.5" stroke="#D9DDE3"/>
<path d="M8.5 11H10.1667H23.5" stroke="#8C8F93" stroke-width="1.67" stroke-linecap="round" stroke-linejoin="round"/>
<path d="M12.6667 10.9998V9.33317C12.6667 8.89114 12.8423 8.46722 13.1549 8.15466C13.4675 7.8421 13.8914 7.6665 14.3334 7.6665H17.6667C18.1088 7.6665 18.5327 7.8421 18.8453 8.15466C19.1578 8.46722 19.3334 8.89114 19.3334 9.33317V10.9998M21.8334 10.9998V22.6665C21.8334 23.1085 21.6578 23.5325 21.3453 23.845C21.0327 24.1576 20.6088 24.3332 20.1667 24.3332H11.8334C11.3914 24.3332 10.9675 24.1576 10.6549 23.845C10.3423 23.5325 10.1667 23.1085 10.1667 22.6665V10.9998H21.8334Z" stroke="#8C8F93" stroke-width="1.67" stroke-linecap="round" stroke-linejoin="round"/>
</svg>
