<svg width="48" height="48" viewBox="0 0 48 48" fill="none" xmlns="http://www.w3.org/2000/svg">
<path d="M45 44.7393C36.4411 44.7393 28.0422 45.4214 19.8433 44.5788C9.2047 43.4554 1.32574 33.1033 2.04564 22.6711C2.84554 10.8746 11.5644 2.32811 23.1629 2.00712C33.8815 1.72625 43.3202 9.7912 44.72 20.5846C44.84 21.5075 44.96 22.4303 45 23.3532C45 30.4953 45 37.6374 45 44.7393ZM36.6811 36.5941C36.6811 32.02 36.7211 27.6063 36.6811 23.2328C36.6011 16.2111 30.9218 10.5134 23.8428 10.2326C17.1237 9.99182 11.1644 15.2882 10.3645 22.1896C9.60465 28.8903 14.444 35.7515 21.1631 36.5139C26.2025 37.0355 31.3618 36.5941 36.6811 36.5941Z" fill="url(#paint0_linear_1132_35079)"/>
<defs>
<linearGradient id="paint0_linear_1132_35079" x1="23.5" y1="2" x2="23.5" y2="45" gradientUnits="userSpaceOnUse">
<stop stop-color="#FE6F37"/>
<stop offset="0.515625" stop-color="#EC4E27"/>
<stop offset="1" stop-color="#C22916"/>
</linearGradient>
</defs>
</svg>
