<svg width="16" height="16" viewBox="0 0 16 16" fill="none" xmlns="http://www.w3.org/2000/svg">
<path d="M8 13C10.7614 13 13 10.7614 13 8C13 5.23858 10.7614 3 8 3C5.23858 3 3 5.23858 3 8C3 10.7614 5.23858 13 8 13Z" stroke="#8C8F93" stroke-width="1.25" stroke-linecap="round" stroke-linejoin="round"/>
<path d="M6.54492 6.50004C6.66247 6.16587 6.8945 5.88409 7.1999 5.70461C7.5053 5.52512 7.86437 5.45951 8.21351 5.5194C8.56265 5.57928 8.87933 5.7608 9.10746 6.0318C9.33559 6.30281 9.46045 6.6458 9.45992 7.00004C9.45992 8.00004 7.95992 8.50004 7.95992 8.50004" stroke="#8C8F93" stroke-width="1.25" stroke-linecap="round" stroke-linejoin="round"/>
<path d="M8 10.5H8.005" stroke="#8C8F93" stroke-width="1.25" stroke-linecap="round" stroke-linejoin="round"/>
</svg>
