<svg width="120" height="120" viewBox="0 0 120 120" fill="none" xmlns="http://www.w3.org/2000/svg">
<g clip-path="url(#clip0_1100_66145)">
<rect width="120" height="120" fill="white"/>
<path d="M53.0994 103.109C51.2337 104.268 48.6572 106.453 46.9915 107.568C45.3257 108.682 37.91 109.932 32.1103 109.017C24.8475 107.871 20.8112 105.55 15.1192 100.879C5.59844 93.0665 0.985138 85.1288 0.682292 72.7887C0.364162 59.826 4.84286 50.7718 15.1192 42.9146C25.6562 34.858 36.0065 38.7214 44.6594 29.4266C48.8652 24.9087 48.4059 20.055 53.0994 16.0501C59.6709 10.4428 65.74 10.2732 74.347 10.0327L74.4216 10.0306C86.7875 9.6851 95.0097 12.2093 104.406 20.286C112.242 27.0214 115.314 32.9659 118.177 42.9146C121.185 53.3702 121.777 60.5228 120 70.6667C118.223 80.8105 114.409 92.7263 104.406 100.879C98.0532 106.057 94.5222 107.902 85.0827 109.017C75.6432 110.131 67.4253 101.66 63.3163 100.879C59.2073 100.099 55.4315 101.66 53.0994 103.109Z" fill="#FDF7F7"/>
<circle cx="15.1697" cy="61.1575" r="1.35868" transform="rotate(-17.9761 15.1697 61.1575)" fill="#F4CACA"/>
<circle cx="51.4475" cy="21.8567" r="1.35868" transform="rotate(-17.9761 51.4475 21.8567)" fill="#F4CACA"/>
<circle cx="108.887" cy="57.3786" r="1.08695" transform="rotate(-17.9761 108.887 57.3786)" stroke="#E42313" stroke-width="0.543473"/>
<circle cx="89.9924" cy="15.4326" r="1.08695" transform="rotate(-17.9761 89.9924 15.4326)" stroke="#E42313" stroke-width="0.543473"/>
<circle cx="45.7786" cy="24.502" r="1.08695" transform="rotate(-17.9761 45.7786 24.502)" stroke="#E42313" stroke-width="0.543473"/>
<circle cx="7.98951" cy="80.0522" r="1.08695" transform="rotate(-17.9761 7.98951 80.0522)" stroke="#E42313" stroke-width="0.543473"/>
<path d="M96.5938 34.756L99.1613 36.0656" stroke="#FF6121" stroke-width="0.81521" stroke-linecap="round"/>
<path d="M98.5327 34.1271L97.2232 36.6946" stroke="#FF6121" stroke-width="0.81521" stroke-linecap="round"/>
<path d="M22.5273 32.8665L25.0949 34.1761" stroke="#FF6121" stroke-width="0.81521" stroke-linecap="round"/>
<path d="M24.4658 32.2376L23.1563 34.8051" stroke="#FF6121" stroke-width="0.81521" stroke-linecap="round"/>
</g>
<path d="M79.1774 90.0661L79.1753 90.1144L81.5931 115.681H63.9499L61.663 99.9788L60.6564 115.279L42.5381 115.077L44.4627 94.9902L46.0993 85.6794V85.6774L46.3449 84.2762H78.6962L78.7385 84.7835L79.1774 90.0661Z" fill="#FFB020"/>
<path d="M32.5515 104.887C34.4201 105.228 36.3685 103.123 36.9035 100.187C37.1376 98.9016 37.0621 97.67 36.7464 96.6627L37.0329 94.9701L41.841 72.1996C41.841 72.1996 50.6949 54.4888 50.6946 51.4142C50.6944 48.3395 48.1334 46.8317 48.1334 46.8317L44.6679 46.8641L33.8004 73.4067L31.8432 93.0208L31.5266 95.7118C30.876 96.543 30.3709 97.6688 30.1368 98.9542C29.6019 101.891 30.683 104.547 32.5515 104.887Z" fill="#F4CACA"/>
<path d="M67.6015 35.8601L64.3805 28.4114L53.9121 30.2233L53.2075 38.9868L67.6015 35.8601Z" fill="#EEAFAF"/>
<path opacity="0.1" d="M67.8051 35.795L64.4264 28.4218L53.4456 30.2153L52.7065 38.8901L67.8051 35.795Z" fill="#F4CACA"/>
<path d="M90.5515 51.3613C90.5515 51.3613 83.1029 37.4706 81.6936 36.0614C81.0663 35.4341 80.0802 35.4253 79.1786 35.6082L68.8095 32.0351L65.295 30.0604L65.0634 33.8173L53.5249 35.8883C53.589 33.5972 53.9122 32.7257 53.9122 32.7257L49.6846 37.6719L41.4307 41.6982L41.4352 41.7345C40.8295 41.9459 40.2553 42.3077 39.8202 42.9061C38.2097 45.1206 33.7808 72.0967 33.7808 72.0967L43.2426 74.1099L44.5303 66.0292L45.457 73.3046L46.1616 86.8933C46.1616 86.8933 59.0458 97.9657 65.2865 93.9394C71.5273 89.9131 79.1772 90.1144 79.1772 90.1144L79.3681 83.8157C79.504 83.5985 79.5798 83.471 79.5798 83.471L79.3785 61.1282V55.183C80.9122 57.3197 82.7629 59.1572 84.9147 60.0178C91.9607 62.8363 90.5515 51.3613 90.5515 51.3613V51.3613Z" fill="#E42313"/>
<path d="M58.2541 31.5338C63.5729 31.5338 67.8847 27.222 67.8847 21.9032C67.8847 16.5843 63.5729 12.2726 58.2541 12.2726C52.9353 12.2726 48.6235 16.5843 48.6235 21.9032C48.6235 27.222 52.9353 31.5338 58.2541 31.5338Z" fill="#F4CACA"/>
<path d="M67.9121 15.8948C69.9469 17.0937 68.3558 18.6858 68.3558 18.6858C68.0378 18.4829 67.6776 18.3552 67.3026 18.3124C67.066 18.2829 66.8258 18.3061 66.5991 18.3803C66.3725 18.4545 66.165 18.5779 65.9916 18.7417C65.8182 18.9054 65.6832 19.1054 65.5962 19.3273C65.5092 19.5493 65.4724 19.7877 65.4884 20.0254C62.8957 21.2136 63.1402 18.683 63.1402 18.683C61.1995 20.6371 60.0834 18.267 60.6235 16.7457C59.6777 19.5842 56.4653 18.5474 56.0421 16.5328C56.2697 18.8346 53.9944 19.9136 53.5748 18.1039C53.5259 18.5342 53.4232 18.9568 53.269 19.3617C52.374 21.6439 50.2098 20.5577 50.2667 19.0435C48.8624 22.3478 46.739 20.2523 48.4166 17.9062C45.9811 17.2128 47.2101 14.1867 49.1187 14.6551C47.645 12.1889 50.2978 10.9058 52.1416 11.9163C51.3621 8.84576 55.6298 8.85855 56.3623 10.1563C58.2055 7.16364 60.8414 7.63661 61.8865 10.7499C62.3355 8.85934 64.9876 8.70595 65.692 12.7441C67.8209 11.6355 69.3726 14.1974 67.9121 15.8948Z" fill="#151718"/>
<path d="M67.3524 18.2849C67.1149 18.255 66.8738 18.2781 66.6464 18.3525C66.419 18.4269 66.2109 18.5507 66.0371 18.7152C65.8632 18.8797 65.7279 19.0806 65.6409 19.3038C65.5538 19.5269 65.5171 19.7666 65.5334 20.0057C62.9326 21.1978 63.1753 18.6531 63.1753 18.6531C61.2296 20.6162 60.1069 18.2314 60.6473 16.7021C59.7012 19.5557 56.476 18.5096 56.049 16.4831C56.2799 18.7982 53.9975 19.8808 53.5745 18.0603C53.5258 18.4931 53.4232 18.9179 53.2689 19.325C51.7802 17.6526 52.105 14.4533 54.8104 14.6657C54.4208 12.9692 57.5759 10.3925 59.2715 14.3618C59.7958 11.9231 63.0868 11.2546 63.1992 15.4253C63.9575 14.0989 67.1676 14.4348 67.3524 18.2849Z" fill="#151718"/>
<path d="M87.0387 47.9838L77.2654 43.3086C77.2654 43.3086 76.8729 40.1795 75.0401 39.0633C74.7285 38.32 74.37 37.5033 74.0444 36.8563C73.2391 35.2561 74.447 32.2363 73.4405 32.2363C72.4339 32.2363 70.9459 35.4122 71.0247 36.2626C71.0851 36.9155 71.6247 38.0553 71.7362 39.053C70.5088 39.5159 69.5186 40.3094 68.8675 40.9412C68.3041 41.4879 68.0948 42.3036 68.315 43.0571C68.953 45.2408 70.5479 49.7507 72.8365 49.7507C75.8562 49.7507 76.6615 49.1468 76.6615 49.1468C76.6615 49.1468 82.9023 56.998 87.5325 57.602C92.1627 58.2059 87.0387 47.9838 87.0387 47.9838V47.9838Z" fill="#F4CACA"/>
<path d="M68.6102 19.8659C68.6102 20.6998 67.9342 21.3758 67.1003 21.3758C66.2665 21.3758 65.3892 20.6998 65.3892 19.8659C65.3892 19.032 66.4678 18.1547 67.3016 18.1547C68.1355 18.1547 68.6102 19.032 68.6102 19.8659Z" fill="#151718"/>
<path d="M55.4247 23.5903C55.7026 23.5903 55.928 23.3649 55.928 23.087C55.928 22.809 55.7026 22.5837 55.4247 22.5837C55.1467 22.5837 54.9214 22.809 54.9214 23.087C54.9214 23.3649 55.1467 23.5903 55.4247 23.5903Z" fill="#151718"/>
<path d="M58.6454 22.9863C58.9233 22.9863 59.1487 22.761 59.1487 22.483C59.1487 22.2051 58.9233 21.9797 58.6454 21.9797C58.3674 21.9797 58.1421 22.2051 58.1421 22.483C58.1421 22.761 58.3674 22.9863 58.6454 22.9863Z" fill="#151718"/>
<path d="M57.9453 20.0462C57.9965 20.7163 60.2202 20.9761 60.3482 20.5958C60.5274 20.0236 57.8173 18.4763 57.9453 20.0462Z" fill="#151718"/>
<path d="M53.9146 20.9169C53.9146 21.2796 56.2101 21.4283 56.1268 20.1914C56.0712 19.2955 53.9632 19.9447 53.9146 20.9169Z" fill="#151718"/>
<path d="M57.2252 22.9863C57.6431 23.7336 57.6051 24.1861 57.3316 24.6668C57.0581 25.1474 56.2186 26.2421 56.6554 27.2139" stroke="#EEAFAF" stroke-width="0.150986" stroke-linecap="round" stroke-linejoin="round"/>
<path d="M58.3433 28.2205C57.9917 29.4006 56.1683 28.7295 55.5249 28.594C55.5249 28.594 56.1894 30.423 57.3602 29.956C58.7068 29.4033 58.3433 28.2205 58.3433 28.2205Z" fill="white"/>
<path d="M66.8222 23.4099C66.9631 23.7104 66.9071 24.0977 66.6728 24.4916C66.4397 24.8836 66.0376 25.267 65.5202 25.5447C65.0029 25.8223 64.4754 25.935 64.0439 25.8987C63.6115 25.8623 63.2906 25.6794 63.1507 25.381C63.0097 25.0803 63.065 24.6929 63.2988 24.2992C63.5314 23.9073 63.9335 23.5239 64.4526 23.2462C64.9717 22.9685 65.4992 22.8559 65.9302 22.8922C66.3621 22.9285 66.6822 23.1114 66.8222 23.4099Z" fill="#EEAFAF" stroke="#EEAFAF" stroke-width="0.201315"/>
<path d="M51.7541 25.2698C51.6771 25.4673 51.5069 25.6258 51.2591 25.7361C51.0332 25.8368 50.7481 25.8946 50.4281 25.904C50.3798 25.1156 50.3789 24.3252 50.4254 23.5367C50.8994 23.7466 51.2781 24.0302 51.5171 24.3303C51.7784 24.6584 51.8626 24.9907 51.754 25.2698L51.8479 25.3063L51.7541 25.2698Z" fill="#EEAFAF" stroke="#EEAFAF" stroke-width="0.201315"/>
<defs>
<clipPath id="clip0_1100_66145">
<rect width="120" height="120" fill="white"/>
</clipPath>
</defs>
</svg>
