<svg width="120" height="121" viewBox="0 0 120 121" fill="none" xmlns="http://www.w3.org/2000/svg">
<g clip-path="url(#clip0_1178_62781)">
<rect width="120" height="120.745" fill="white"/>
<path d="M49.015 95.1773C47.2928 96.2474 44.9145 98.2642 43.3769 99.2932C41.8392 100.322 34.994 101.475 29.6405 100.631C22.9363 99.5732 19.2105 97.431 13.9563 93.1194C5.16794 85.9075 0.90951 78.5804 0.62996 67.1896C0.336302 55.2239 4.47048 46.8662 13.9563 39.6134C23.6828 32.1766 33.2369 35.7428 41.2242 27.1629C45.1065 22.9925 44.6825 18.5122 49.015 14.8154C55.081 9.63941 60.6833 9.48289 68.6282 9.26092L68.697 9.259C80.1117 8.94003 87.7014 11.2701 96.3749 18.7254C103.608 24.9428 106.444 30.43 109.086 39.6134C111.863 49.2648 112.409 55.8672 110.769 65.2307C109.129 74.5943 105.608 85.5935 96.3749 93.1194C90.5108 97.899 87.2514 99.6019 78.538 100.631C69.8246 101.66 62.2389 93.8397 58.446 93.1194C54.6531 92.3991 51.1677 93.8397 49.015 95.1773Z" fill="#FDF7F7"/>
<circle cx="14.0026" cy="56.4531" r="1.25417" transform="rotate(-17.9761 14.0026 56.4531)" fill="#F4CACA"/>
<circle cx="47.4898" cy="20.1753" r="1.25417" transform="rotate(-17.9761 47.4898 20.1753)" fill="#F4CACA"/>
<circle cx="100.511" cy="52.9648" r="1.00333" transform="rotate(-17.9761 100.511 52.9648)" stroke="#E42313" stroke-width="0.501667"/>
<circle cx="83.07" cy="14.2453" r="1.00333" transform="rotate(-17.9761 83.07 14.2453)" stroke="#E42313" stroke-width="0.501667"/>
<circle cx="42.257" cy="22.6172" r="1.00333" transform="rotate(-17.9761 42.257 22.6172)" stroke="#E42313" stroke-width="0.501667"/>
<circle cx="7.37484" cy="73.8943" r="1.00333" transform="rotate(-17.9761 7.37484 73.8943)" stroke="#E42313" stroke-width="0.501667"/>
<path d="M89.1636 32.0825L91.5336 33.2913" stroke="#FF6121" stroke-width="0.752501" stroke-linecap="round"/>
<path d="M90.9534 31.5017L89.7445 33.8717" stroke="#FF6121" stroke-width="0.752501" stroke-linecap="round"/>
<path d="M20.7947 30.3384L23.1647 31.5472" stroke="#FF6121" stroke-width="0.752501" stroke-linecap="round"/>
<path d="M22.584 29.7578L21.3752 32.1278" stroke="#FF6121" stroke-width="0.752501" stroke-linecap="round"/>
</g>
<path d="M90.1942 90.7699H21.8416L7.46487 43.4788C7.32733 43.0271 7.29712 42.5492 7.37666 42.0836C7.45621 41.6181 7.64329 41.1778 7.92284 40.7983C8.20239 40.4187 8.5666 40.1106 8.98615 39.8986C9.4057 39.6865 9.86886 39.5766 10.3383 39.5776H72.4112C73.0538 39.5775 73.6794 39.785 74.196 40.1695C74.7125 40.5541 75.0928 41.0953 75.2806 41.7136L90.1942 90.7699Z" fill="#E42313"/>
<path d="M79.0002 85.1402H29.9629C29.3145 85.1402 28.6832 84.9308 28.1619 84.5429C27.6405 84.155 27.2566 83.609 27.0666 82.9853L16.1794 47.1714C16.1101 46.9441 16.0949 46.7037 16.1348 46.4694C16.1747 46.2351 16.2687 46.0135 16.4092 45.8225C16.5498 45.6314 16.7329 45.4762 16.944 45.3694C17.155 45.2625 17.388 45.207 17.6242 45.2073H66.6615C67.3099 45.2073 67.9412 45.4167 68.4626 45.8046C68.9839 46.1925 69.3679 46.7384 69.5579 47.3622L80.4451 83.1761C80.5143 83.4034 80.5296 83.6438 80.4897 83.8781C80.4498 84.1124 80.3558 84.334 80.2152 84.525C80.0747 84.7161 79.8915 84.8713 79.6805 84.9781C79.4695 85.085 79.2365 85.1405 79.0002 85.1402Z" fill="white"/>
<path d="M21.8414 90.77H113.654C114.273 90.77 114.867 91.0176 115.305 91.4583C115.743 91.899 115.989 92.4967 115.989 93.1199V96.2589C115.989 96.8821 115.743 97.4798 115.305 97.9205C114.867 98.3612 114.273 98.6088 113.654 98.6088H24.1768C23.8701 98.6088 23.5664 98.548 23.2831 98.4299C22.9998 98.3118 22.7423 98.1387 22.5254 97.9205C22.3086 97.7023 22.1366 97.4433 22.0192 97.1582C21.9018 96.8731 21.8414 96.5675 21.8414 96.2589V90.77Z" fill="#C40D0E"/>
<path d="M46.804 70.8622C46.804 70.8622 51.1815 68.4339 55.6276 70.8622" stroke="#99ADF9" stroke-width="2.41401" stroke-miterlimit="10" stroke-linecap="round"/>
<path d="M62.8857 75.6953C62.6742 75.858 62.3954 75.9797 62.0903 75.9927L41.215 76.8869C40.169 76.9317 39.47 75.8644 39.9104 74.902L46.8869 59.9227L49.453 54.4146C49.9351 53.4065 51.3297 53.3468 51.8935 54.3101L63.2263 73.9033C63.6021 74.5455 63.3933 75.3005 62.8857 75.6953Z" fill="#FF6121"/>
<path d="M62.8859 75.6953C62.6744 75.858 62.3956 75.9796 62.0906 75.9927L41.2175 76.8867C40.1717 76.9315 39.4727 75.8644 39.9131 74.9021L46.8888 59.9252L45.0897 72.3547C44.9371 73.4144 45.6969 74.3692 46.77 74.4548L62.8859 75.6953Z" fill="#E42313"/>
<path d="M50.3013 68.6423L48.8883 60.8466C48.8338 60.5856 49.0421 60.3352 49.3039 60.3239L52.4021 60.1902C52.664 60.1789 52.8702 60.4114 52.8592 60.6752L52.0904 68.5651C52.0776 68.7851 51.8875 68.9469 51.6693 68.9564L50.7312 68.9969C50.5139 69.0282 50.3321 68.8605 50.3013 68.6423Z" fill="white"/>
<path d="M51.4007 73.4475C52.2554 73.4107 52.9195 72.6847 52.8841 71.8259C52.8487 70.9671 52.1272 70.3007 51.2725 70.3375C50.4179 70.3743 49.7538 71.1002 49.7892 71.959C49.8246 72.8178 50.5461 73.4842 51.4007 73.4475Z" fill="white"/>
<defs>
<clipPath id="clip0_1178_62781">
<rect width="120" height="120.745" fill="white"/>
</clipPath>
</defs>
</svg>
