<svg width="24" height="24" viewBox="0 0 24 24" fill="none" xmlns="http://www.w3.org/2000/svg">
<path d="M6 8H7.33333H18" stroke="#8C8F93" stroke-width="1.33" stroke-linecap="round" stroke-linejoin="round"/>
<path d="M9.33325 7.99998V6.66665C9.33325 6.31302 9.47373 5.97389 9.72378 5.72384C9.97383 5.47379 10.313 5.33331 10.6666 5.33331H13.3333C13.6869 5.33331 14.026 5.47379 14.2761 5.72384C14.5261 5.97389 14.6666 6.31302 14.6666 6.66665V7.99998M16.6666 7.99998V17.3333C16.6666 17.6869 16.5261 18.0261 16.2761 18.2761C16.026 18.5262 15.6869 18.6666 15.3333 18.6666H8.66659C8.31296 18.6666 7.97382 18.5262 7.72378 18.2761C7.47373 18.0261 7.33325 17.6869 7.33325 17.3333V7.99998H16.6666Z" stroke="#8C8F93" stroke-width="1.33" stroke-linecap="round" stroke-linejoin="round"/>
</svg>
