<svg width="24" height="24" viewBox="0 0 24 24" fill="none" xmlns="http://www.w3.org/2000/svg">
<path d="M12 14L11.2929 14.7071L12 15.4142L12.7071 14.7071L12 14ZM13 5C13 4.44772 12.5523 4 12 4C11.4477 4 11 4.44771 11 5L13 5ZM6.29289 9.70711L11.2929 14.7071L12.7071 13.2929L7.70711 8.29289L6.29289 9.70711ZM12.7071 14.7071L17.7071 9.70711L16.2929 8.29289L11.2929 13.2929L12.7071 14.7071ZM13 14L13 5L11 5L11 14L13 14Z" fill="url(#paint0_linear_1586_19737)"/>
<path d="M5 16L5 17C5 18.1046 5.89543 19 7 19L17 19C18.1046 19 19 18.1046 19 17V16" stroke="url(#paint1_linear_1586_19737)" stroke-width="2"/>
<defs>
<linearGradient id="paint0_linear_1586_19737" x1="7" y1="9.5" x2="17" y2="9.5" gradientUnits="userSpaceOnUse">
<stop stop-color="#76B852"/>
<stop offset="1" stop-color="#8DC26F"/>
</linearGradient>
<linearGradient id="paint1_linear_1586_19737" x1="12" y1="16" x2="12" y2="19" gradientUnits="userSpaceOnUse">
<stop stop-color="#76B852"/>
<stop offset="1" stop-color="#8DC26F"/>
</linearGradient>
</defs>
</svg>
