<svg width="16" height="20" viewBox="0 0 16 20" fill="none" xmlns="http://www.w3.org/2000/svg">
<path fill-rule="evenodd" clip-rule="evenodd" d="M1 0.775391C0.630838 0.775391 0.291701 0.978778 0.117843 1.30444C-0.0560159 1.6301 -0.0363131 2.02506 0.169093 2.3318L5.84436 10.8069V18.7754C5.84436 19.1361 6.03858 19.4688 6.35263 19.6461C6.66668 19.8235 7.05191 19.818 7.36076 19.6317L9.67298 18.2374C9.9731 18.0564 10.1566 17.7315 10.1566 17.381V10.8078L15.831 2.3317C16.0363 2.02495 16.056 1.63002 15.8821 1.30438C15.7083 0.978753 15.3691 0.775391 15 0.775391H1ZM7.67527 9.94659L2.87314 2.77539H13.1271L8.32559 9.94765C8.2154 10.1123 8.15657 10.3059 8.15657 10.504V16.8163L7.84436 17.0046V10.503C7.84436 10.3049 7.7855 10.1112 7.67527 9.94659Z" fill="#7F8C93"/>
</svg>
