<svg width="24" height="24" viewBox="0 0 24 24" fill="none" xmlns="http://www.w3.org/2000/svg">
<g clip-path="url(#clip0_1576_23987)">
<path d="M12 23.1705C12.7956 23.1705 13.5587 22.8746 14.1213 22.3479C14.6839 21.8212 15 21.1068 15 20.362H9C9 21.1068 9.31607 21.8212 9.87868 22.3479C10.4413 22.8746 11.2044 23.1705 12 23.1705ZM13.4925 2.24568C13.5134 2.05042 13.4904 1.85322 13.4249 1.66681C13.3595 1.48039 13.253 1.30888 13.1124 1.16336C12.9717 1.01783 12.8001 0.901516 12.6085 0.821909C12.4169 0.742302 12.2096 0.701172 12 0.701172C11.7904 0.701172 11.5831 0.742302 11.3915 0.821909C11.1999 0.901516 11.0283 1.01783 10.8876 1.16336C10.747 1.30888 10.6405 1.48039 10.5751 1.66681C10.5096 1.85322 10.4866 2.05042 10.5075 2.24568C8.81208 2.56852 7.28793 3.42997 6.19315 4.68417C5.09836 5.93836 4.50022 7.50823 4.5 9.12793C4.5 10.6698 3.75 17.5535 1.5 18.9577H22.5C20.25 17.5535 19.5 10.6698 19.5 9.12793C19.5 5.72963 16.92 2.89304 13.4925 2.24568Z" fill="#909398"/>
</g>
<defs>
<clipPath id="clip0_1576_23987">
<rect width="24" height="22.4681" fill="white" transform="translate(0 0.702148)"/>
</clipPath>
</defs>
</svg>
