<svg width="24" height="24" viewBox="0 0 24 24" fill="none" xmlns="http://www.w3.org/2000/svg">
<rect width="24" height="24" transform="translate(0 24) rotate(-90)" fill="#ED2B24"/>
<path d="M19 14L18.2929 14.7071L19 15.4142L19.7071 14.7071L19 14ZM14.2929 10.7071L18.2929 14.7071L19.7071 13.2929L15.7071 9.29289L14.2929 10.7071ZM19.7071 14.7071L23.7071 10.7071L22.2929 9.29289L18.2929 13.2929L19.7071 14.7071Z" fill="white"/>
<path d="M8.5 5.93782C9.56413 5.32344 10.7712 5 12 5C13.2288 5 14.4359 5.32344 15.5 5.93782C16.5641 6.5522 17.4478 7.43587 18.0622 8.5C18.6766 9.56413 19 10.7712 19 12" stroke="white" stroke-width="2" stroke-linecap="round"/>
<path d="M5 10L5.70711 9.29289L5 8.58579L4.29289 9.29289L5 10ZM9.70711 13.2929L5.70711 9.29289L4.29289 10.7071L8.29289 14.7071L9.70711 13.2929ZM4.29289 9.29289L0.292893 13.2929L1.70711 14.7071L5.70711 10.7071L4.29289 9.29289Z" fill="white"/>
<path d="M15.5 18.0622C14.4359 18.6766 13.2288 19 12 19C10.7712 19 9.56413 18.6766 8.5 18.0622C7.43587 17.4478 6.5522 16.5641 5.93782 15.5C5.32344 14.4359 5 13.2288 5 12" stroke="white" stroke-width="2" stroke-linecap="round"/>
</svg>
