<svg width="16" height="16" viewBox="0 0 16 16" fill="none" xmlns="http://www.w3.org/2000/svg">
<path d="M6 11L6 8.6" stroke="#FF5630" stroke-width="2" stroke-linecap="round"/>
<path d="M9.19995 11L9.19995 8.6" stroke="#FF5630" stroke-width="2" stroke-linecap="round"/>
<path d="M0.399902 4.6001H14.7999V4.6001C14.4283 4.6001 14.2425 4.6001 14.087 4.62472C13.2312 4.76026 12.5601 5.43144 12.4245 6.28723C12.3999 6.44269 12.3999 6.6285 12.3999 7.0001V11.0001C12.3999 12.8857 12.3999 13.8285 11.8141 14.4143C11.2283 15.0001 10.2855 15.0001 8.3999 15.0001H6.7999C4.91428 15.0001 3.97148 15.0001 3.38569 14.4143C2.7999 13.8285 2.7999 12.8857 2.7999 11.0001V7.0001C2.7999 6.6285 2.7999 6.44269 2.77528 6.28723C2.63974 5.43144 1.96856 4.76026 1.11277 4.62472C0.957306 4.6001 0.771505 4.6001 0.399902 4.6001V4.6001Z" stroke="#FF5630" stroke-width="2" stroke-linecap="round"/>
<path d="M6.05447 1.69637C6.14563 1.61132 6.3465 1.53616 6.62593 1.48256C6.90536 1.42896 7.24774 1.3999 7.59995 1.3999C7.95217 1.3999 8.29454 1.42896 8.57397 1.48256C8.8534 1.53616 9.05427 1.61132 9.14543 1.69637" stroke="#FF5630" stroke-width="2" stroke-linecap="round"/>
</svg>
