<svg width="16" height="16" viewBox="0 0 16 16" fill="none" xmlns="http://www.w3.org/2000/svg">
<rect width="16" height="16" rx="2" fill="#E8453C"/>
<path d="M3.13139 10L3.45526 9.00497H5.02983L5.35369 10H6.34233L4.83807 5.63636H3.64915L2.14276 10H3.13139ZM3.68963 8.2848L4.22656 6.63352H4.26065L4.79759 8.2848H3.68963ZM6.86754 10H7.79013V8.58523H8.5657C9.56925 8.58523 10.1531 7.98651 10.1531 7.11506C10.1531 6.24787 9.5799 5.63636 8.58913 5.63636H6.86754V10ZM7.79013 7.84588V6.39062H8.41229C8.94496 6.39062 9.20277 6.6804 9.20277 7.11506C9.20277 7.54759 8.94496 7.84588 8.41655 7.84588H7.79013ZM10.7523 10H11.6749V8.75994L12.1287 8.20597L13.324 10H14.4277L12.7892 7.5902L14.4086 5.63636H13.3027L11.7324 7.56037H11.6749V5.63636H10.7523V10Z" fill="white"/>
</svg>
