<svg width="426" height="512" viewBox="0 0 426 512" fill="none" xmlns="http://www.w3.org/2000/svg">
<path d="M425.24 229H21.2402V420H425.24V229Z" fill="#ED2A23"/>
<path d="M32 464V48.0003C32 39.1633 39.163 32.0003 48 32.0003H288V96.0003C288 113.673 302.327 128 320 128H384V176H416V112C416.025 107.747 414.355 103.659 411.36 100.64L315.36 4.64028C312.341 1.64528 308.253 -0.0247233 304 0.000276697H48C21.49 0.000276697 0 21.4903 0 48.0003V464C0 490.51 21.49 512 48 512H160V480H48C39.164 480 32 472.837 32 464Z" fill="black"/>
<path d="M159.2 384L152.48 362.72H115.2L108.48 384H89.4402L125.76 275.2H142.72L179.2 384H159.2ZM125.6 329.44L120.64 345.12H146.88L141.92 329.44L133.92 301.92L125.6 329.44ZM197.374 384V275.2H233.214C244.627 275.2 253.161 278.08 258.814 283.84C264.574 289.6 267.454 297.28 267.454 306.88V315.36C267.454 324.96 264.574 332.693 258.814 338.56C253.161 344.32 244.627 347.2 233.214 347.2H216.574V384H197.374ZM233.214 293.6H216.574V328.8H233.214C237.907 328.8 241.481 327.627 243.934 325.28C246.494 322.933 247.774 319.627 247.774 315.36V306.88C247.774 302.72 246.494 299.467 243.934 297.12C241.481 294.773 237.907 293.6 233.214 293.6ZM347.009 384L319.809 336.48C317.996 338.507 316.129 340.533 314.209 342.56C312.396 344.587 310.476 346.667 308.449 348.8V384H289.249V275.2H308.449V326.88C316.556 317.6 323.489 308.8 329.249 300.48C335.009 292.053 339.969 283.627 344.129 275.2H365.089C360.502 284.373 355.596 293.067 350.369 301.28C345.249 309.387 339.809 316.907 334.049 323.84L370.209 384H347.009Z" fill="white"/>
</svg>
