<svg width="16" height="16" viewBox="0 0 16 16" fill="none" xmlns="http://www.w3.org/2000/svg">
<rect width="16" height="16" rx="2" fill="#E8453C"/>
<path d="M6.2294 7.16406C6.10795 6.15625 5.34517 5.5767 4.33523 5.5767C3.18253 5.5767 2.30256 6.39062 2.30256 7.81818C2.30256 9.24148 3.16761 10.0597 4.33523 10.0597C5.45384 10.0597 6.12926 9.31605 6.2294 8.51278L5.29616 8.50852C5.20881 8.97514 4.84233 9.24361 4.35014 9.24361C3.6875 9.24361 3.23793 8.75142 3.23793 7.81818C3.23793 6.91051 3.68111 6.39276 4.35653 6.39276C4.86151 6.39276 5.22585 6.68466 5.29616 7.16406H6.2294ZM9.25817 6.89134H10.1424C10.1296 6.11364 9.49041 5.5767 8.51882 5.5767C7.56214 5.5767 6.86115 6.10511 6.86541 6.89773C6.86328 7.54119 7.31712 7.9098 8.05433 8.08665L8.52947 8.20597C9.00462 8.32102 9.26882 8.45739 9.27095 8.75142C9.26882 9.07102 8.96626 9.28835 8.49751 9.28835C8.01811 9.28835 7.67294 9.06676 7.64311 8.62997H6.75036C6.77379 9.57386 7.44922 10.0618 8.50817 10.0618C9.57351 10.0618 10.1999 9.55256 10.2021 8.75355C10.1999 8.02699 9.65234 7.64134 8.89382 7.47088L8.50178 7.37713C8.12251 7.28977 7.80504 7.14915 7.81143 6.83594C7.81143 6.55469 8.06072 6.34801 8.51243 6.34801C8.95348 6.34801 9.22408 6.5483 9.25817 6.89134ZM11.611 5.63636H10.5861L12.0925 10H13.2814L14.7857 5.63636H13.763L12.7061 8.9517H12.6657L11.611 5.63636Z" fill="white"/>
</svg>
