<svg width="16" height="16" viewBox="0 0 16 16" fill="none" xmlns="http://www.w3.org/2000/svg">
<rect width="16" height="16" rx="2" fill="#E8453C"/>
<path d="M2.92614 10C4.25568 10 5.06108 9.17756 5.06108 7.81392C5.06108 6.45455 4.25568 5.63636 2.93892 5.63636H1.37926V10H2.92614ZM2.30185 9.20952V6.42685H2.88991C3.7081 6.42685 4.14062 6.84446 4.14062 7.81392C4.14062 8.78764 3.7081 9.20952 2.88778 9.20952H2.30185ZM9.75444 7.81818C9.75444 6.39062 8.86808 5.5767 7.71112 5.5767C6.54776 5.5767 5.66779 6.39062 5.66779 7.81818C5.66779 9.23935 6.54776 10.0597 7.71112 10.0597C8.86808 10.0597 9.75444 9.24574 9.75444 7.81818ZM8.81907 7.81818C8.81907 8.7429 8.38015 9.24361 7.71112 9.24361C7.03995 9.24361 6.60316 8.7429 6.60316 7.81818C6.60316 6.89347 7.03995 6.39276 7.71112 6.39276C8.38015 6.39276 8.81907 6.89347 8.81907 7.81818ZM14.288 7.16406C14.1665 6.15625 13.4038 5.5767 12.3938 5.5767C11.2411 5.5767 10.3612 6.39062 10.3612 7.81818C10.3612 9.24148 11.2262 10.0597 12.3938 10.0597C13.5124 10.0597 14.1879 9.31605 14.288 8.51278L13.3548 8.50852C13.2674 8.97514 12.9009 9.24361 12.4087 9.24361C11.7461 9.24361 11.2965 8.75142 11.2965 7.81818C11.2965 6.91051 11.7397 6.39276 12.4151 6.39276C12.9201 6.39276 13.2844 6.68466 13.3548 7.16406H14.288Z" fill="white"/>
</svg>
