<svg width="21" height="20" viewBox="0 0 21 20" fill="none" xmlns="http://www.w3.org/2000/svg">
<path fill-rule="evenodd" clip-rule="evenodd" d="M2.76667 0.416748C2.34325 0.416748 2 0.759996 2 1.18341C2 1.60683 2.34325 1.95008 2.76667 1.95008H18.1C18.5234 1.95008 18.8667 1.60683 18.8667 1.18341C18.8667 0.759996 18.5234 0.416748 18.1 0.416748H2.76667ZM2.07201 3.18413C1.93641 3.51145 1.99232 3.7908 2.23972 4.02258L8.13682 9.92817V15.7499C8.13682 15.9573 8.21277 16.1374 8.36401 16.289L11.4263 19.3552C11.5699 19.5074 11.749 19.5834 11.9648 19.5834C12.06 19.5834 12.1597 19.5634 12.2638 19.5232C12.5749 19.3875 12.7305 19.1521 12.7305 18.8168V9.92817L18.6275 4.02258C18.8748 3.7908 18.9301 3.51145 18.7945 3.18413C18.659 2.87263 18.4238 2.71675 18.0883 2.71675H2.77801C2.44323 2.71675 2.20745 2.87263 2.07201 3.18413ZM9.49581 9.92817V15.4992L11.3715 17.3771V9.92817V9.36582L11.7689 8.96792L16.6539 4.07574H4.21332L9.09847 8.96792L9.49581 9.36582V9.92817Z" fill="#1D1E1C"/>
</svg>
