<svg width="426" height="512" viewBox="0 0 426 512" fill="none" xmlns="http://www.w3.org/2000/svg">
<path d="M425.24 229H21.2402V420H425.24V229Z" fill="#ED2A23"/>
<path d="M32 464V48.0003C32 39.1633 39.163 32.0003 48 32.0003H288V96.0003C288 113.673 302.327 128 320 128H384V176H416V112C416.025 107.747 414.355 103.659 411.36 100.64L315.36 4.64028C312.341 1.64528 308.253 -0.0247233 304 0.000276697H48C21.49 0.000276697 0 21.4903 0 48.0003V464C0 490.51 21.49 512 48 512H160V480H48C39.164 480 32 472.837 32 464Z" fill="black"/>
<path d="M109.52 377V336.82H73.96V377H57.16V281.8H73.96V320.72H109.52V281.8H126.32V377H109.52ZM141.25 297.9V281.8H211.25V297.9H184.65V377H167.85V297.9H141.25ZM244.621 281.8L271.221 346.9L297.681 281.8H316.021V377H299.921V340.6L302.021 307.28L278.361 365.8H263.381L240.281 307.14L242.381 340.6V377H226.281V281.8H244.621ZM397.235 360.9V377H342.355V281.8H359.155V360.9H397.235Z" fill="white"/>
</svg>
