<svg width="16" height="16" viewBox="0 0 16 16" fill="none" xmlns="http://www.w3.org/2000/svg">
<rect width="16" height="16" rx="2" fill="#E8453C"/>
<path d="M4.12642 5.63636V8.67898C4.12429 9.09872 3.93679 9.32031 3.59588 9.32031C3.27415 9.32031 3.06534 9.12003 3.05895 8.77273H2.14062C2.13636 9.64418 2.75852 10.0597 3.54901 10.0597C4.43324 10.0597 5.03622 9.52486 5.03835 8.67898V5.63636H4.12642ZM5.80114 10H6.72372V8.58523H7.49929C8.50284 8.58523 9.08665 7.98651 9.08665 7.11506C9.08665 6.24787 8.51349 5.63636 7.52273 5.63636H5.80114V10ZM6.72372 7.84588V6.39062H7.34588C7.87855 6.39062 8.13636 6.6804 8.13636 7.11506C8.13636 7.54759 7.87855 7.84588 7.35014 7.84588H6.72372ZM12.5794 7.04688H13.5169C13.3975 6.18395 12.6369 5.5767 11.6504 5.5767C10.4977 5.5767 9.6092 6.40767 9.6092 7.82244C9.6092 9.20312 10.4402 10.0597 11.6696 10.0597C12.7711 10.0597 13.5574 9.36293 13.5574 8.21449V7.66477H11.7314V8.35938H12.6689C12.6561 8.90057 12.2875 9.24361 11.6738 9.24361C10.9814 9.24361 10.5446 8.72585 10.5446 7.81392C10.5446 6.90625 10.9984 6.39276 11.6653 6.39276C12.1404 6.39276 12.4622 6.63778 12.5794 7.04688Z" fill="white"/>
</svg>
