<svg width="426" height="512" viewBox="0 0 426 512" fill="none" xmlns="http://www.w3.org/2000/svg">
<path d="M425.24 229H21.2402V420H425.24V229Z" fill="#ED2A23"/>
<path d="M32 464V48.0003C32 39.1633 39.163 32.0003 48 32.0003H288V96.0003C288 113.673 302.327 128 320 128H384V176H416V112C416.025 107.747 414.355 103.659 411.36 100.64L315.36 4.64028C312.341 1.64528 308.253 -0.0247233 304 0.000276697H48C21.49 0.000276697 0 21.4903 0 48.0003V464C0 490.51 21.49 512 48 512H160V480H48C39.164 480 32 472.837 32 464Z" fill="black"/>
<path d="M90.4002 385.6V367.2C99.0402 367.2 105.28 365.6 109.12 362.4C113.067 359.093 115.04 353.28 115.04 344.96V275.2H134.24V344.96C134.24 353.28 132.96 360.48 130.4 366.56C127.84 372.64 123.36 377.333 116.96 380.64C110.667 383.947 101.814 385.6 90.4002 385.6ZM161.436 384V275.2H197.276C208.69 275.2 217.223 278.08 222.876 283.84C228.636 289.6 231.516 297.28 231.516 306.88V315.36C231.516 324.96 228.636 332.693 222.876 338.56C217.223 344.32 208.69 347.2 197.276 347.2H180.636V384H161.436ZM197.276 293.6H180.636V328.8H197.276C201.97 328.8 205.543 327.627 207.996 325.28C210.556 322.933 211.836 319.627 211.836 315.36V306.88C211.836 302.72 210.556 299.467 207.996 297.12C205.543 294.773 201.97 293.6 197.276 293.6ZM325.311 376.96C322.645 378.56 318.218 380.427 312.031 382.56C305.951 384.587 298.805 385.6 290.591 385.6C281.311 385.6 273.525 383.68 267.231 379.84C261.045 376 256.351 370.72 253.151 364C249.951 357.28 248.351 349.6 248.351 340.96V318.08C248.351 309.227 249.951 301.493 253.151 294.88C256.351 288.16 261.098 282.933 267.391 279.2C273.791 275.467 281.791 273.6 291.391 273.6C296.085 273.6 300.938 274.133 305.951 275.2C310.965 276.16 316.458 277.973 322.431 280.64L316.511 297.44C311.285 295.413 306.751 293.973 302.911 293.12C299.178 292.16 295.445 291.68 291.711 291.68C283.391 291.68 277.365 294.08 273.631 298.88C269.898 303.573 268.031 309.973 268.031 318.08V340.96C268.031 348.64 269.898 354.933 273.631 359.84C277.471 364.747 283.445 367.2 291.551 367.2C294.005 367.2 296.671 366.987 299.551 366.56C302.431 366.133 305.205 365.547 307.871 364.8V340.96H290.271V324.16H325.311V376.96Z" fill="white"/>
</svg>
