<svg width="16" height="16" viewBox="0 0 16 16" fill="none" xmlns="http://www.w3.org/2000/svg">
<rect width="16" height="16" rx="2" fill="#E8453C"/>
<path d="M2.77202 6.36364V8.89915C2.77024 9.24893 2.61399 9.43359 2.3299 9.43359C2.06179 9.43359 1.88778 9.26669 1.88246 8.97727H1.11719C1.11364 9.70348 1.6321 10.0497 2.29084 10.0497C3.0277 10.0497 3.53018 9.60405 3.53196 8.89915V6.36364H2.77202ZM6.14027 7.40945H6.87713C6.86648 6.76136 6.33381 6.31392 5.52415 6.31392C4.72692 6.31392 4.14276 6.75426 4.14631 7.41477C4.14453 7.95099 4.52273 8.25817 5.13707 8.40554L5.53303 8.50497C5.92898 8.60085 6.14915 8.71449 6.15092 8.95952C6.14915 9.22585 5.89702 9.40696 5.50639 9.40696C5.10689 9.40696 4.81925 9.2223 4.79439 8.85831H4.05043C4.06996 9.64489 4.63281 10.0515 5.51527 10.0515C6.40305 10.0515 6.92507 9.62713 6.92685 8.96129C6.92507 8.35582 6.46875 8.03445 5.83665 7.8924L5.50994 7.81428C5.19389 7.74148 4.92933 7.62429 4.93466 7.36328C4.93466 7.12891 5.1424 6.95668 5.51882 6.95668C5.88636 6.95668 6.11186 7.12358 6.14027 7.40945ZM10.7856 8.18182C10.7856 6.99219 10.047 6.31392 9.08283 6.31392C8.11337 6.31392 7.38006 6.99219 7.38006 8.18182C7.38006 9.36612 8.11337 10.0497 9.08283 10.0497C10.047 10.0497 10.7856 9.37145 10.7856 8.18182ZM10.0061 8.18182C10.0061 8.95241 9.64036 9.36967 9.08283 9.36967C8.52353 9.36967 8.15953 8.95241 8.15953 8.18182C8.15953 7.41122 8.52353 6.99396 9.08283 6.99396C9.64036 6.99396 10.0061 7.41122 10.0061 8.18182ZM14.3967 6.36364H13.6314V8.65057H13.5994L12.0298 6.36364H11.3551V10H12.1239V7.71129H12.1506L13.7326 10H14.3967V6.36364Z" fill="white"/>
</svg>
