<svg width="60" height="48" viewBox="0 0 60 48" fill="none" xmlns="http://www.w3.org/2000/svg">
<path d="M23.6702 0V4.14C21.1802 3.15 18.5102 2.64 15.8402 2.64C10.4702 2.64 5.10023 4.68 0.990234 8.79L10.9802 18.78H14.3102V22.11C16.8902 24.69 20.2502 26.04 23.6402 26.19V33H14.6702V42C14.6702 45.3 17.3702 48 20.6702 48H50.6702C55.6502 48 59.6702 43.98 59.6702 39V0H23.6702ZM20.3402 19.23V12.78H13.5002L10.3802 9.66C12.0902 9 13.9502 8.64 15.8402 8.64C19.8602 8.64 23.6102 10.2 26.4602 13.02L30.6902 17.25L30.0902 17.85C28.5602 19.38 26.5202 20.25 24.3302 20.25C22.9202 20.25 21.5402 19.89 20.3402 19.23ZM53.6702 39C53.6702 40.65 52.3202 42 50.6702 42C49.0202 42 47.6702 40.65 47.6702 39V33H29.6702V25.23C31.3802 24.54 32.9702 23.52 34.3502 22.14L34.9502 21.54L43.4402 30H47.6702V25.77L29.6702 7.86V6H53.6702V39Z" fill="#DEE3ED"/>
</svg>
