<svg width="16" height="16" viewBox="0 0 16 16" fill="none" xmlns="http://www.w3.org/2000/svg">
<rect width="16" height="16" rx="2" fill="#E8453C"/>
<path d="M2.94385 8.52988V10.133H2.00635V5.58301H3.78135C4.12301 5.58301 4.42301 5.64551 4.68135 5.77051C4.94176 5.89551 5.14176 6.07363 5.28135 6.30488C5.42093 6.53405 5.49072 6.79551 5.49072 7.08926C5.49072 7.53509 5.3376 7.88717 5.03135 8.14551C4.72718 8.40176 4.30531 8.52988 3.76572 8.52988H2.94385ZM2.94385 7.77051H3.78135C4.02926 7.77051 4.21781 7.71217 4.34697 7.59551C4.47822 7.47884 4.54385 7.31217 4.54385 7.09551C4.54385 6.87259 4.47822 6.69238 4.34697 6.55488C4.21572 6.41738 4.03447 6.34655 3.80322 6.34238H2.94385V7.77051Z" fill="white"/>
<path d="M6.1376 10.133V5.58301H7.5376C7.9376 5.58301 8.29489 5.67363 8.60947 5.85488C8.92614 6.03405 9.17301 6.2903 9.3501 6.62363C9.52718 6.95488 9.61572 7.33197 9.61572 7.75488V7.96426C9.61572 8.38717 9.52822 8.76322 9.35322 9.09238C9.18031 9.42155 8.93551 9.67676 8.61885 9.85801C8.30218 10.0393 7.94489 10.1309 7.54697 10.133H6.1376ZM7.0751 6.34238V9.37988H7.52822C7.89489 9.37988 8.1751 9.26009 8.36885 9.02051C8.5626 8.78092 8.66156 8.43822 8.66572 7.99238V7.75176C8.66572 7.28926 8.56989 6.93926 8.37822 6.70176C8.18656 6.46217 7.90635 6.34238 7.5376 6.34238H7.0751Z" fill="white"/>
<path d="M13.0376 8.27363H11.2376V10.133H10.3001V5.58301H13.2626V6.34238H11.2376V7.51738H13.0376V8.27363Z" fill="white"/>
</svg>
