<svg width="426" height="512" viewBox="0 0 426 512" fill="none" xmlns="http://www.w3.org/2000/svg">
<path d="M425.24 229H21.2402V420H425.24V229Z" fill="#ED2A23"/>
<path d="M32 464V48.0003C32 39.1633 39.163 32.0003 48 32.0003H288V96.0003C288 113.673 302.327 128 320 128H384V176H416V112C416.025 107.747 414.355 103.659 411.36 100.64L315.36 4.64028C312.341 1.64528 308.253 -0.0247233 304 0.000276697H48C21.49 0.000276697 0 21.4903 0 48.0003V464C0 490.51 21.49 512 48 512H160V480H48C39.164 480 32 472.837 32 464Z" fill="black"/>
<path d="M101.28 384V275.2H137.12C148.534 275.2 157.067 278.08 162.72 283.84C168.48 289.6 171.36 297.28 171.36 306.88V315.36C171.36 324.96 168.48 332.693 162.72 338.56C157.067 344.32 148.534 347.2 137.12 347.2H120.48V384H101.28ZM137.12 293.6H120.48V328.8H137.12C141.814 328.8 145.387 327.627 147.84 325.28C150.4 322.933 151.68 319.627 151.68 315.36V306.88C151.68 302.72 150.4 299.467 147.84 297.12C145.387 294.773 141.814 293.6 137.12 293.6ZM193.155 384V275.2H229.955C242.969 275.2 252.889 278.827 259.715 286.08C266.542 293.333 269.955 304 269.955 318.08V340.96C269.955 355.147 266.542 365.867 259.715 373.12C252.889 380.373 242.969 384 229.955 384H193.155ZM229.155 293.6H212.355V365.6H229.155C236.729 365.6 242.115 363.733 245.315 360C248.622 356.267 250.275 349.92 250.275 340.96V318.08C250.275 309.227 248.622 302.933 245.315 299.2C242.115 295.467 236.729 293.6 229.155 293.6ZM351.023 342.24H314.543V384H295.343V275.2H355.823V293.6H314.543V323.84H351.023V342.24Z" fill="white"/>
</svg>
