<svg width="16" height="16" viewBox="0 0 16 16" fill="none" xmlns="http://www.w3.org/2000/svg">
<rect width="16" height="16" rx="2" fill="#E8453C"/>
<path d="M2.37926 10H3.30185V8.58523H4.07741C5.08097 8.58523 5.66477 7.98651 5.66477 7.11506C5.66477 6.24787 5.09162 5.63636 4.10085 5.63636H2.37926V10ZM3.30185 7.84588V6.39062H3.92401C4.45668 6.39062 4.71449 6.6804 4.71449 7.11506C4.71449 7.54759 4.45668 7.84588 3.92827 7.84588H3.30185ZM9.91389 5.63636H8.99556V8.38068H8.95721L7.07369 5.63636H6.26403V10H7.18661V7.25355H7.21857L9.11701 10H9.91389V5.63636ZM13.5696 7.04688H14.5071C14.3878 6.18395 13.6271 5.5767 12.6406 5.5767C11.4879 5.5767 10.5994 6.40767 10.5994 7.82244C10.5994 9.20312 11.4304 10.0597 12.6598 10.0597C13.7614 10.0597 14.5476 9.36293 14.5476 8.21449V7.66477H12.7216V8.35938H13.6591C13.6463 8.90057 13.2777 9.24361 12.6641 9.24361C11.9716 9.24361 11.5348 8.72585 11.5348 7.81392C11.5348 6.90625 11.9886 6.39276 12.6555 6.39276C13.1307 6.39276 13.4524 6.63778 13.5696 7.04688Z" fill="white"/>
</svg>
