<svg width="426" height="512" viewBox="0 0 426 512" fill="none" xmlns="http://www.w3.org/2000/svg">
<path d="M425.24 229H21.2402V420H425.24V229Z" fill="#ED2A23"/>
<path d="M32 464V48.0003C32 39.1633 39.163 32.0003 48 32.0003H288V96.0003C288 113.673 302.327 128 320 128H384V176H416V112C416.025 107.747 414.355 103.659 411.36 100.64L315.36 4.64028C312.341 1.64528 308.253 -0.0247233 304 0.000276697H48C21.49 0.000276697 0 21.4903 0 48.0003V464C0 490.51 21.49 512 48 512H160V480H48C39.164 480 32 472.837 32 464Z" fill="black"/>
<path d="M101.28 384V275.2H137.12C148.534 275.2 157.067 278.08 162.72 283.84C168.48 289.6 171.36 297.28 171.36 306.88V315.36C171.36 324.96 168.48 332.693 162.72 338.56C157.067 344.32 148.534 347.2 137.12 347.2H120.48V384H101.28ZM137.12 293.6H120.48V328.8H137.12C141.814 328.8 145.387 327.627 147.84 325.28C150.4 322.933 151.68 319.627 151.68 315.36V306.88C151.68 302.72 150.4 299.467 147.84 297.12C145.387 294.773 141.814 293.6 137.12 293.6ZM193.155 384V275.2H210.755C219.182 286.187 227.182 297.813 234.755 310.08C242.329 322.24 249.209 334.773 255.395 347.68L253.955 315.2V275.2H272.355V384H254.755C247.929 370.56 240.835 357.067 233.475 343.52C226.222 329.867 218.489 317.013 210.275 304.96L211.555 342.4V384H193.155ZM374.374 376.96C371.707 378.56 367.281 380.427 361.094 382.56C355.014 384.587 347.867 385.6 339.654 385.6C330.374 385.6 322.587 383.68 316.294 379.84C310.107 376 305.414 370.72 302.214 364C299.014 357.28 297.414 349.6 297.414 340.96V318.08C297.414 309.227 299.014 301.493 302.214 294.88C305.414 288.16 310.161 282.933 316.454 279.2C322.854 275.467 330.854 273.6 340.454 273.6C345.147 273.6 350.001 274.133 355.014 275.2C360.027 276.16 365.521 277.973 371.494 280.64L365.574 297.44C360.347 295.413 355.814 293.973 351.974 293.12C348.241 292.16 344.507 291.68 340.774 291.68C332.454 291.68 326.427 294.08 322.694 298.88C318.961 303.573 317.094 309.973 317.094 318.08V340.96C317.094 348.64 318.961 354.933 322.694 359.84C326.534 364.747 332.507 367.2 340.614 367.2C343.067 367.2 345.734 366.987 348.614 366.56C351.494 366.133 354.267 365.547 356.934 364.8V340.96H339.334V324.16H374.374V376.96Z" fill="white"/>
</svg>
