<svg width="16" height="16" viewBox="0 0 16 16" fill="none" xmlns="http://www.w3.org/2000/svg">
<rect width="16" height="16" rx="2" fill="#E8453C"/>
<path d="M2.37926 10H3.30185V8.58523H4.07741C5.08097 8.58523 5.66477 7.98651 5.66477 7.11506C5.66477 6.24787 5.09162 5.63636 4.10085 5.63636H2.37926V10ZM3.30185 7.84588V6.39062H3.92401C4.45668 6.39062 4.71449 6.6804 4.71449 7.11506C4.71449 7.54759 4.45668 7.84588 3.92827 7.84588H3.30185ZM6.26403 10H7.18661V8.58523H7.96218C8.96573 8.58523 9.54954 7.98651 9.54954 7.11506C9.54954 6.24787 8.97638 5.63636 7.98562 5.63636H6.26403V10ZM7.18661 7.84588V6.39062H7.80877C8.34144 6.39062 8.59925 6.6804 8.59925 7.11506C8.59925 7.54759 8.34144 7.84588 7.81303 7.84588H7.18661ZM9.9826 6.39702H11.3185V10H12.2305V6.39702H13.5664V5.63636H9.9826V6.39702Z" fill="white"/>
</svg>
