<svg width="16" height="16" viewBox="0 0 16 16" fill="none" xmlns="http://www.w3.org/2000/svg">
<rect width="16" height="16" rx="2" fill="#E8453C"/>
<path d="M2.14063 6H1.18164L2.41016 8L1.1582 10H2.12695L2.94727 8.63477H2.97852L3.79883 10H4.77148L3.52344 8L4.74414 6H3.78906L2.97852 7.36328H2.94727L2.14063 6ZM5.2793 10H7.83984V9.30273H6.125V6H5.2793V10ZM10.5698 7.15039H11.3804C11.3687 6.4375 10.7827 5.94531 9.89209 5.94531C9.01514 5.94531 8.37256 6.42969 8.37646 7.15625C8.37451 7.74609 8.79053 8.08398 9.46631 8.24609L9.90186 8.35547C10.3374 8.46094 10.5796 8.58594 10.5815 8.85547C10.5796 9.14844 10.3022 9.34766 9.87256 9.34766C9.43311 9.34766 9.1167 9.14453 9.08936 8.74414H8.271C8.29248 9.60938 8.91162 10.0566 9.88232 10.0566C10.8589 10.0566 11.4331 9.58984 11.4351 8.85742C11.4331 8.19141 10.9312 7.83789 10.2358 7.68164L9.87646 7.5957C9.52881 7.51562 9.23779 7.38672 9.24365 7.09961C9.24365 6.8418 9.47217 6.65234 9.88623 6.65234C10.2905 6.65234 10.5386 6.83594 10.5698 7.15039ZM12.7969 6H11.8379L13.0664 8L11.8145 10H12.7832L13.6035 8.63477H13.6348L14.4551 10H15.4277L14.1797 8L15.4004 6H14.4453L13.6348 7.36328H13.6035L12.7969 6Z" fill="white"/>
</svg>
