<svg width="426" height="512" viewBox="0 0 426 512" fill="none" xmlns="http://www.w3.org/2000/svg">
<path d="M425.24 229H21.2402V420H425.24V229Z" fill="#ED2A23"/>
<path d="M32 464V48.0003C32 39.1633 39.163 32.0003 48 32.0003H288V96.0003C288 113.673 302.327 128 320 128H384V176H416V112C416.025 107.747 414.355 103.659 411.36 100.64L315.36 4.64028C312.341 1.64528 308.253 -0.0247233 304 0.000276697H48C21.49 0.000276697 0 21.4903 0 48.0003V464C0 490.51 21.49 512 48 512H160V480H48C39.164 480 32 472.837 32 464Z" fill="black"/>
<path d="M134.52 377L114.64 342.14L95.74 377H78.1L105.96 327.58L79.64 281.8H98.68L117.02 313.72L134.24 281.8H151.88L125.7 328.42L153.56 377H134.52ZM223.747 360.9V377H168.867V281.8H185.667V360.9H223.747ZM260.544 362.86C271.371 362.86 276.784 358.847 276.784 350.82C276.784 347.553 275.944 344.987 274.264 343.12C272.677 341.253 269.691 339.62 265.304 338.22L253.824 334.44C240.104 329.96 233.244 320.953 233.244 307.42C233.244 299.58 235.671 293.14 240.524 288.1C245.471 282.967 253.171 280.4 263.624 280.4C268.011 280.4 272.351 280.913 276.644 281.94C280.937 282.873 285.511 284.413 290.364 286.56L285.184 300.98C280.704 299.207 276.877 297.947 273.704 297.2C270.624 296.36 267.451 295.94 264.184 295.94C259.891 295.94 256.484 296.733 253.964 298.32C251.537 299.813 250.324 302.567 250.324 306.58C250.324 309.567 251.164 312.04 252.844 314C254.617 315.867 257.511 317.453 261.524 318.76L273.004 322.54C279.911 324.873 285.091 328.28 288.544 332.76C292.091 337.147 293.864 342.98 293.864 350.26C293.864 358.66 291.204 365.473 285.884 370.7C280.564 375.833 272.211 378.4 260.824 378.4C256.344 378.4 251.677 377.887 246.824 376.86C242.064 375.74 236.837 373.873 231.144 371.26L236.324 356.84C241.551 359.08 245.984 360.667 249.624 361.6C253.357 362.44 256.997 362.86 260.544 362.86ZM357.645 377L337.765 342.14L318.865 377H301.225L329.085 327.58L302.765 281.8H321.805L340.145 313.72L357.365 281.8H375.005L348.825 328.42L376.685 377H357.645Z" fill="white"/>
</svg>
