<svg width="426" height="512" viewBox="0 0 426 512" fill="none" xmlns="http://www.w3.org/2000/svg">
<path d="M425.24 229H21.2402V420H425.24V229Z" fill="#ED2A23"/>
<path d="M32 464V48.0003C32 39.1633 39.163 32.0003 48 32.0003H288V96.0003C288 113.673 302.327 128 320 128H384V176H416V112C416.025 107.747 414.355 103.659 411.36 100.64L315.36 4.64028C312.341 1.64528 308.253 -0.0247233 304 0.000276697H48C21.49 0.000276697 0 21.4903 0 48.0003V464C0 490.51 21.49 512 48 512H160V480H48C39.164 480 32 472.837 32 464Z" fill="black"/>
<path d="M128.88 384L106.16 344.16L84.56 384H64.4L96.24 327.52L66.16 275.2H87.92L108.88 311.68L128.56 275.2H148.72L118.8 328.48L150.64 384H128.88ZM189.094 275.2L219.494 349.6L249.734 275.2H270.694V384H252.294V342.4L254.694 304.32L227.654 371.2H210.534L184.134 304.16L186.534 342.4V384H168.134V275.2H189.094ZM363.51 365.6V384H300.79V275.2H319.99V365.6H363.51Z" fill="white"/>
</svg>
