<svg width="16" height="16" viewBox="0 0 16 16" fill="none" xmlns="http://www.w3.org/2000/svg">
<rect width="16" height="16" rx="2" fill="#E8453C"/>
<path d="M3.33239 10H6.6733V9.23935H4.48935L6.66903 6.18395V5.63636H3.32812V6.39702H5.50994L3.33239 9.45241V10ZM8.3038 5.63636H7.38121V10H8.3038V5.63636ZM9.06286 10H9.98544V8.58523H10.761C11.7646 8.58523 12.3484 7.98651 12.3484 7.11506C12.3484 6.24787 11.7752 5.63636 10.7844 5.63636H9.06286V10ZM9.98544 7.84588V6.39062H10.6076C11.1403 6.39062 11.3981 6.6804 11.3981 7.11506C11.3981 7.54759 11.1403 7.84588 10.6119 7.84588H9.98544Z" fill="white"/>
</svg>
