<svg width="426" height="512" viewBox="0 0 426 512" fill="none" xmlns="http://www.w3.org/2000/svg">
<path d="M425.24 229H21.2402V420H425.24V229Z" fill="#ED2A23"/>
<path d="M32 464V48.0003C32 39.1633 39.163 32.0003 48 32.0003H288V96.0003C288 113.673 302.327 128 320 128H384V176H416V112C416.025 107.747 414.355 103.659 411.36 100.64L315.36 4.64028C312.341 1.64528 308.253 -0.0247233 304 0.000276697H48C21.49 0.000276697 0 21.4903 0 48.0003V464C0 490.51 21.49 512 48 512H160V480H48C39.164 480 32 472.837 32 464Z" fill="black"/>
<path d="M161.92 365.6V384H92.3202V367.2L137.76 293.6H93.9202V275.2H160.32V292L114.88 365.6H161.92ZM201.886 384H182.686V275.2H201.886V384ZM231.905 384V275.2H267.745C279.159 275.2 287.692 278.08 293.345 283.84C299.105 289.6 301.985 297.28 301.985 306.88V315.36C301.985 324.96 299.105 332.693 293.345 338.56C287.692 344.32 279.159 347.2 267.745 347.2H251.105V384H231.905ZM267.745 293.6H251.105V328.8H267.745C272.439 328.8 276.012 327.627 278.465 325.28C281.025 322.933 282.305 319.627 282.305 315.36V306.88C282.305 302.72 281.025 299.467 278.465 297.12C276.012 294.773 272.439 293.6 267.745 293.6Z" fill="white"/>
</svg>
